STARTFONT 2.1
FONT -FontForge-Orbitron-Light-R-Normal--32-310-75-75-P-213-ISO10646-1
SIZE 31 75 75
FONTBOUNDINGBOX 49 40 -6 -8
COMMENT "Generated by fontforge, http://fontforge.sourceforge.net"
STARTPROPERTIES 38
FOUNDRY "FontForge"
FAMILY_NAME "Orbitron"
WEIGHT_NAME "Light"
SLANT "R"
SETWIDTH_NAME "Normal"
ADD_STYLE_NAME ""
PIXEL_SIZE 32
POINT_SIZE 310
RESOLUTION_X 75
RESOLUTION_Y 75
SPACING "P"
AVERAGE_WIDTH 213
CHARSET_REGISTRY "ISO10646"
CHARSET_ENCODING "1"
FONTNAME_REGISTRY ""
CHARSET_COLLECTIONS "ISO10646-1"
FONT_NAME "Orbitron-Light"
FACE_NAME "Orbitron Light"
FONT_VERSION "1.000"
FONT_ASCENT 24
FONT_DESCENT 8
UNDERLINE_POSITION -3
UNDERLINE_THICKNESS 2
X_HEIGHT 18
CAP_HEIGHT 22
RAW_ASCENT 750
RAW_DESCENT 250
NORM_SPACE 9
RELATIVE_WEIGHT 30
RELATIVE_SETWIDTH 50
SUPERSCRIPT_X 0
SUPERSCRIPT_Y 15
SUPERSCRIPT_SIZE 20
SUBSCRIPT_X 0
SUBSCRIPT_Y 4
SUBSCRIPT_SIZE 20
AVG_LOWERCASE_WIDTH 209
AVG_UPPERCASE_WIDTH 257
ENDPROPERTIES
CHARS 250
STARTCHAR space
ENCODING 32
SWIDTH 272 0
DWIDTH 9 0
BBX 1 1 0 0
BITMAP
00
ENDCHAR
STARTCHAR exclam
ENCODING 33
SWIDTH 220 0
DWIDTH 7 0
BBX 3 23 2 0
BITMAP
E0
E0
E0
E0
E0
E0
E0
E0
E0
E0
E0
E0
E0
E0
E0
E0
E0
00
00
00
E0
E0
E0
ENDCHAR
STARTCHAR quotedbl
ENCODING 34
SWIDTH 372 0
DWIDTH 12 0
BBX 8 4 2 19
BITMAP
E7
E7
E7
E7
ENDCHAR
STARTCHAR numbersign
ENCODING 35
SWIDTH 797 0
DWIDTH 26 0
BBX 24 23 1 0
BITMAP
00700C
00E01C
00E01C
00C018
01C038
7FFFFF
7FFFFF
7FFFFF
038070
030060
0300E0
0700E0
0700C0
0601C0
0E01C0
FFFFFE
FFFFFE
FFFFFE
1C0380
180300
380700
380700
300E00
ENDCHAR
STARTCHAR dollar
ENCODING 36
SWIDTH 788 0
DWIDTH 25 0
BBX 24 31 1 -4
BITMAP
003800
003800
003800
003800
3FFFFC
7FFFFE
FFFFFF
E03807
E03807
E03800
E03800
E03800
E03800
E03800
FFFFFC
7FFFFE
3FFFFF
003807
003807
003807
003807
003807
E03807
E03807
FFFFFF
7FFFFE
3FFFFC
003800
003800
003800
003800
ENDCHAR
STARTCHAR percent
ENCODING 37
SWIDTH 966 0
DWIDTH 31 0
BBX 28 23 2 0
BITMAP
3F000040
7F8000C0
C0C001C0
C0C003C0
C0C00780
C0C01F00
C0C03C00
C0C07800
7F80F000
3F01E000
0003C000
000F0000
001E0000
003C1FC0
00783FE0
00F06030
03E06030
07806030
0F006030
1E006030
1C006030
18003FE0
20001FC0
ENDCHAR
STARTCHAR ampersand
ENCODING 38
SWIDTH 938 0
DWIDTH 30 0
BBX 27 23 2 0
BITMAP
0FFFF800
1FFFFC00
3FFFFE00
38000E00
38000600
38000000
38000000
38000000
38000000
1E000000
3F800000
E3C00000
E0F00E00
E03C0E00
E00F0E00
E003CE00
E000EE00
E0003E00
E0000F00
E00007C0
FFFFFEE0
7FFFFC20
3FFFF800
ENDCHAR
STARTCHAR quotesingle
ENCODING 39
SWIDTH 224 0
DWIDTH 7 0
BBX 3 4 2 19
BITMAP
E0
E0
E0
E0
ENDCHAR
STARTCHAR parenleft
ENCODING 40
SWIDTH 277 0
DWIDTH 9 0
BBX 5 23 1 0
BITMAP
38
78
F8
E0
E0
E0
E0
E0
E0
E0
E0
E0
E0
E0
E0
E0
E0
E0
E0
E0
F8
78
38
ENDCHAR
STARTCHAR parenright
ENCODING 41
SWIDTH 278 0
DWIDTH 9 0
BBX 5 23 2 0
BITMAP
E0
F0
F8
38
38
38
38
38
38
38
38
38
38
38
38
38
38
38
38
38
F8
F0
E0
ENDCHAR
STARTCHAR asterisk
ENCODING 42
SWIDTH 491 0
DWIDTH 16 0
BBX 14 13 1 10
BITMAP
0700
0700
0700
8708
F778
FFF8
7FF4
0F80
1FC0
1DC0
38E0
78F0
1040
ENDCHAR
STARTCHAR plus
ENCODING 43
SWIDTH 433 0
DWIDTH 14 0
BBX 13 13 0 3
BITMAP
0700
0700
0700
0700
0700
FFF8
FFF8
FFF8
0700
0700
0700
0700
0700
ENDCHAR
STARTCHAR comma
ENCODING 44
SWIDTH 193 0
DWIDTH 6 0
BBX 3 7 2 -4
BITMAP
E0
E0
E0
E0
E0
C0
80
ENDCHAR
STARTCHAR hyphen
ENCODING 45
SWIDTH 517 0
DWIDTH 17 0
BBX 12 3 2 8
BITMAP
FFF0
FFF0
FFF0
ENDCHAR
STARTCHAR period
ENCODING 46
SWIDTH 214 0
DWIDTH 7 0
BBX 3 3 2 0
BITMAP
E0
E0
E0
ENDCHAR
STARTCHAR slash
ENCODING 47
SWIDTH 521 0
DWIDTH 17 0
BBX 16 23 0 0
BITMAP
0001
0001
0003
0007
0006
000E
001C
0038
0070
0060
00C0
01C0
0380
0700
0E00
0C00
1C00
3800
7000
E000
C000
8000
8000
ENDCHAR
STARTCHAR zero
ENCODING 48
SWIDTH 834 0
DWIDTH 27 0
BBX 23 23 2 0
BITMAP
3FFFF8
7FFFFC
FFFFFE
E0000E
E0001E
E0003E
E000EE
E001CE
E0038E
E0070E
E01C0E
E0380E
E0700E
E0E00E
E3C00E
E7000E
EE000E
FC000E
F8000E
F0000E
FFFFFE
7FFFFC
3FFFF8
ENDCHAR
STARTCHAR one
ENCODING 49
SWIDTH 391 0
DWIDTH 13 0
BBX 10 23 0 0
BITMAP
03C0
07C0
0FC0
1FC0
3DC0
79C0
71C0
81C0
01C0
01C0
01C0
01C0
01C0
01C0
01C0
01C0
01C0
01C0
01C0
01C0
01C0
01C0
01C0
ENDCHAR
STARTCHAR two
ENCODING 50
SWIDTH 830 0
DWIDTH 26 0
BBX 23 23 2 0
BITMAP
3FFFF8
7FFFFC
FFFFFE
E0000E
E0000E
00000E
00000E
00000E
00000E
00000E
3FFFFE
7FFFFC
FFFFF8
E00000
E00000
E00000
E00000
E00000
E00000
E00000
FFFFFE
FFFFFE
FFFFFE
ENDCHAR
STARTCHAR three
ENCODING 51
SWIDTH 826 0
DWIDTH 26 0
BBX 23 23 2 0
BITMAP
3FFFF0
7FFFF8
FFFFFC
E0001C
E0001C
00001C
00001C
00001C
00001C
00001C
0FFFFC
0FFFFC
0FFFFE
00000E
00000E
00000E
00000E
00000E
00000E
E0000E
FFFFFE
7FFFFC
3FFFF8
ENDCHAR
STARTCHAR four
ENCODING 52
SWIDTH 730 0
DWIDTH 23 0
BBX 23 23 0 0
BITMAP
0001E0
0003E0
0007E0
000FE0
001FE0
003CE0
00F8E0
01F0E0
03C0E0
0780E0
0F00E0
1E00E0
3800E0
7000E0
FFFFFE
FFFFFE
FFFFFE
0000E0
0000E0
0000E0
0000E0
0000E0
0000E0
ENDCHAR
STARTCHAR five
ENCODING 53
SWIDTH 830 0
DWIDTH 26 0
BBX 23 23 2 0
BITMAP
FFFFFE
FFFFFE
FFFFFE
E00000
E00000
E00000
E00000
E00000
E00000
E00000
FFFFF8
FFFFFC
FFFFFE
00000E
00000E
00000E
00000E
00000E
E0000E
E0000E
FFFFFE
7FFFFC
3FFFF8
ENDCHAR
STARTCHAR six
ENCODING 54
SWIDTH 820 0
DWIDTH 26 0
BBX 23 23 2 0
BITMAP
3FFFF0
7FFFF0
FFFFF0
E00000
E00000
E00000
E00000
E00000
E00000
E00000
FFFFF8
FFFFFC
FFFFFE
E0000E
E0000E
E0000E
E0000E
E0000E
E0000E
E0000E
FFFFFE
7FFFFC
3FFFF8
ENDCHAR
STARTCHAR seven
ENCODING 55
SWIDTH 660 0
DWIDTH 22 0
BBX 20 23 0 0
BITMAP
FFFFC0
FFFFE0
FFFFF0
000070
000070
000070
000070
000070
000070
000070
000070
000070
000070
000070
000070
000070
000070
000070
000070
000070
000070
000070
000070
ENDCHAR
STARTCHAR eight
ENCODING 56
SWIDTH 834 0
DWIDTH 27 0
BBX 23 23 2 0
BITMAP
3FFFF8
7FFFFC
FFFFFE
E0000E
E0000E
E0000E
E0000E
E0000E
E0000E
E0000E
7FFFFC
7FFFFC
E0000E
E0000E
E0000E
E0000E
E0000E
E0000E
E0000E
E0000E
FFFFFE
7FFFFC
3FFFF8
ENDCHAR
STARTCHAR nine
ENCODING 57
SWIDTH 828 0
DWIDTH 27 0
BBX 23 23 2 0
BITMAP
3FFFF8
7FFFFC
FFFFFE
E0000E
E0000E
E0000E
E0000E
E0000E
E0000E
E0000E
FFFFFE
7FFFFE
3FFFFE
00000E
00000E
00000E
00000E
00000E
00000E
00000E
FFFFFE
7FFFFC
3FFFF8
ENDCHAR
STARTCHAR colon
ENCODING 58
SWIDTH 214 0
DWIDTH 7 0
BBX 3 19 2 0
BITMAP
E0
E0
E0
00
00
00
00
00
00
00
00
00
00
00
00
00
E0
E0
E0
ENDCHAR
STARTCHAR semicolon
ENCODING 59
SWIDTH 193 0
DWIDTH 6 0
BBX 3 23 1 -4
BITMAP
E0
E0
E0
00
00
00
00
00
00
00
00
00
00
00
00
00
E0
E0
E0
E0
E0
C0
80
ENDCHAR
STARTCHAR less
ENCODING 60
SWIDTH 473 0
DWIDTH 15 0
BBX 13 17 0 1
BITMAP
0008
0038
00F8
01F0
07C0
1F00
7C00
F800
E000
F800
7C00
1F00
07C0
01F0
00F8
0038
0008
ENDCHAR
STARTCHAR equal
ENCODING 61
SWIDTH 638 0
DWIDTH 20 0
BBX 16 9 2 5
BITMAP
FFFF
FFFF
FFFF
0000
0000
0000
FFFF
FFFF
FFFF
ENDCHAR
STARTCHAR greater
ENCODING 62
SWIDTH 475 0
DWIDTH 15 0
BBX 13 18 2 0
BITMAP
8000
E000
F000
7C00
3F00
0F80
03E0
00F8
0078
0078
00F8
03E0
0F80
3F00
7C00
F000
E000
8000
ENDCHAR
STARTCHAR question
ENCODING 63
SWIDTH 678 0
DWIDTH 23 0
BBX 21 23 1 0
BITMAP
FFFFE0
FFFFF0
FFFFF8
000038
000038
000038
000038
000038
000038
000038
000038
03FFF8
07FFF0
0FFFE0
0E0000
0E0000
000000
000000
000000
000000
0E0000
0E0000
0E0000
ENDCHAR
STARTCHAR at
ENCODING 64
SWIDTH 831 0
DWIDTH 27 0
BBX 23 23 2 0
BITMAP
3FFFF8
7FFFFC
FFFFFE
E0000E
E0000E
E0000E
E0FE0E
E1FF0E
E3018E
E3018E
E3018E
E3018E
E3018E
E3018E
E3018E
E1FFFE
E0FFFE
E00000
E00000
E00000
FFFFFE
7FFFFE
3FFFFE
ENDCHAR
STARTCHAR A
ENCODING 65
SWIDTH 836 0
DWIDTH 27 0
BBX 23 23 2 0
BITMAP
3FFFF8
7FFFFC
FFFFFE
E0000E
E0000E
E0000E
E0000E
E0000E
E0000E
E0000E
E0000E
E0000E
FFFFFE
FFFFFE
FFFFFE
E0000E
E0000E
E0000E
E0000E
E0000E
E0000E
E0000E
E0000E
ENDCHAR
STARTCHAR B
ENCODING 66
SWIDTH 832 0
DWIDTH 27 0
BBX 23 23 2 0
BITMAP
FFFFF0
FFFFF8
FFFFFC
E0001C
E0001C
E0001C
E0001C
E0001C
E0001C
E0001C
FFFFFC
FFFFFC
FFFFFE
E0000E
E0000E
E0000E
E0000E
E0000E
E0000E
E0000E
FFFFFE
FFFFFC
FFFFF8
ENDCHAR
STARTCHAR C
ENCODING 67
SWIDTH 822 0
DWIDTH 26 0
BBX 23 23 2 0
BITMAP
3FFFFE
7FFFFE
FFFFFE
E00000
E00000
E00000
E00000
E00000
E00000
E00000
E00000
E00000
E00000
E00000
E00000
E00000
E00000
E00000
E00000
E00000
FFFFFE
7FFFFE
3FFFFE
ENDCHAR
STARTCHAR D
ENCODING 68
SWIDTH 834 0
DWIDTH 27 0
BBX 23 23 2 0
BITMAP
FFFFF8
FFFFFC
FFFFFE
E0000E
E0000E
E0000E
E0000E
E0000E
E0000E
E0000E
E0000E
E0000E
E0000E
E0000E
E0000E
E0000E
E0000E
E0000E
E0000E
E0000E
FFFFFE
FFFFFC
FFFFF8
ENDCHAR
STARTCHAR E
ENCODING 69
SWIDTH 766 0
DWIDTH 25 0
BBX 21 23 2 0
BITMAP
FFFFF8
FFFFF8
FFFFF8
E00000
E00000
E00000
E00000
E00000
E00000
E00000
FFFFC0
FFFFC0
FFFFC0
E00000
E00000
E00000
E00000
E00000
E00000
E00000
FFFFF8
FFFFF8
FFFFF8
ENDCHAR
STARTCHAR F
ENCODING 70
SWIDTH 723 0
DWIDTH 23 0
BBX 21 23 2 0
BITMAP
FFFFF8
FFFFF8
FFFFF8
E00000
E00000
E00000
E00000
E00000
E00000
E00000
FFFFC0
FFFFC0
FFFFC0
E00000
E00000
E00000
E00000
E00000
E00000
E00000
E00000
E00000
E00000
ENDCHAR
STARTCHAR G
ENCODING 71
SWIDTH 830 0
DWIDTH 27 0
BBX 23 23 2 0
BITMAP
3FFFF8
7FFFFC
FFFFFE
E0000E
E0000E
E00000
E00000
E00000
E00000
E00000
E00000
E003FE
E003FE
E003FE
E0000E
E0000E
E0000E
E0000E
E0000E
E0000E
FFFFFE
7FFFFC
3FFFF8
ENDCHAR
STARTCHAR H
ENCODING 72
SWIDTH 851 0
DWIDTH 28 0
BBX 24 23 2 0
BITMAP
E00007
E00007
E00007
E00007
E00007
E00007
E00007
E00007
E00007
E00007
FFFFFF
FFFFFF
FFFFFF
E00007
E00007
E00007
E00007
E00007
E00007
E00007
E00007
E00007
E00007
ENDCHAR
STARTCHAR I
ENCODING 73
SWIDTH 220 0
DWIDTH 7 0
BBX 3 23 2 0
BITMAP
E0
E0
E0
E0
E0
E0
E0
E0
E0
E0
E0
E0
E0
E0
E0
E0
E0
E0
E0
E0
E0
E0
E0
ENDCHAR
STARTCHAR J
ENCODING 74
SWIDTH 780 0
DWIDTH 26 0
BBX 24 23 0 0
BITMAP
000007
000007
000007
000007
000007
000007
000007
000007
000007
000007
000007
000007
000007
000007
000007
000007
000007
E00007
E00007
E00007
FFFFFF
7FFFFE
3FFFFC
ENDCHAR
STARTCHAR K
ENCODING 75
SWIDTH 797 0
DWIDTH 26 0
BBX 22 23 2 0
BITMAP
E0001C
E00038
E00070
E000E0
E001E0
E003C0
E00780
E00700
E00E00
E01C00
FFFC00
FFF800
FFFC00
E01C00
E00E00
E00700
E00780
E003C0
E001E0
E000E0
E00070
E00038
E0001C
ENDCHAR
STARTCHAR L
ENCODING 76
SWIDTH 779 0
DWIDTH 25 0
BBX 23 23 2 0
BITMAP
E00000
E00000
E00000
E00000
E00000
E00000
E00000
E00000
E00000
E00000
E00000
E00000
E00000
E00000
E00000
E00000
E00000
E00000
E00000
E00000
FFFFFE
FFFFFE
FFFFFE
ENDCHAR
STARTCHAR M
ENCODING 77
SWIDTH 928 0
DWIDTH 30 0
BBX 26 23 2 0
BITMAP
F00003C0
F80007C0
FC000FC0
FC000FC0
EE001DC0
E70039C0
E38071C0
E1C0E1C0
E1E1E1C0
E0E1C1C0
E07381C0
E03F01C0
E01E01C0
E01E01C0
E00C01C0
E00001C0
E00001C0
E00001C0
E00001C0
E00001C0
E00001C0
E00001C0
E00001C0
ENDCHAR
STARTCHAR N
ENCODING 78
SWIDTH 832 0
DWIDTH 27 0
BBX 23 23 2 0
BITMAP
F0000E
F8000E
FC000E
FC000E
EE000E
E7000E
E3800E
E1C00E
E0C00E
E0E00E
E0700E
E0380E
E01C0E
E00E0E
E0060E
E0070E
E0038E
E001CE
E000EE
E0007E
E0007E
E0003E
E0001E
ENDCHAR
STARTCHAR O
ENCODING 79
SWIDTH 828 0
DWIDTH 27 0
BBX 23 23 2 0
BITMAP
3FFFF8
7FFFFC
FFFFFE
E0000E
E0000E
E0000E
E0000E
E0000E
E0000E
E0000E
E0000E
E0000E
E0000E
E0000E
E0000E
E0000E
E0000E
E0000E
E0000E
E0000E
FFFFFE
7FFFFC
3FFFF8
ENDCHAR
STARTCHAR P
ENCODING 80
SWIDTH 791 0
DWIDTH 26 0
BBX 23 23 2 0
BITMAP
FFFFF8
FFFFFC
FFFFFE
E0000E
E0000E
E0000E
E0000E
E0000E
E0000E
E0000E
E0000E
E0000E
FFFFFE
FFFFFC
FFFFF8
E00000
E00000
E00000
E00000
E00000
E00000
E00000
E00000
ENDCHAR
STARTCHAR Q
ENCODING 81
SWIDTH 884 0
DWIDTH 29 0
BBX 26 23 2 0
BITMAP
3FFFF800
7FFFFC00
FFFFFE00
E0000E00
E0000E00
E0000E00
E0000E00
E0000E00
E0000E00
E0000E00
E0000E00
E0000E00
E0000E00
E0000E00
E0000E00
E0000E00
E0000E00
E0000E00
E0000E00
E0000E00
FFFFFFC0
7FFFFFC0
3FFFFFC0
ENDCHAR
STARTCHAR R
ENCODING 82
SWIDTH 825 0
DWIDTH 27 0
BBX 23 23 2 0
BITMAP
FFFFF8
FFFFFC
FFFFFE
E0000E
E0000E
E0000E
E0000E
E0000E
E0000E
E0000E
E0000E
E0000E
FFFFFE
FFFFFC
FFFFF8
E00700
E00380
E001C0
E000E0
E00070
E00078
E0003C
E0001E
ENDCHAR
STARTCHAR S
ENCODING 83
SWIDTH 822 0
DWIDTH 27 0
BBX 23 23 2 0
BITMAP
3FFFF8
7FFFFC
FFFFFE
E0000E
E0000E
E00000
E00000
E00000
E00000
E00000
FFFFF8
7FFFFC
3FFFFE
00000E
00000E
00000E
00000E
00000E
E0000E
E0000E
FFFFFE
7FFFFC
3FFFF8
ENDCHAR
STARTCHAR T
ENCODING 84
SWIDTH 759 0
DWIDTH 24 0
BBX 23 23 1 0
BITMAP
FFFFFE
FFFFFE
FFFFFE
003800
003800
003800
003800
003800
003800
003800
003800
003800
003800
003800
003800
003800
003800
003800
003800
003800
003800
003800
003800
ENDCHAR
STARTCHAR U
ENCODING 85
SWIDTH 828 0
DWIDTH 27 0
BBX 23 23 2 0
BITMAP
E0000E
E0000E
E0000E
E0000E
E0000E
E0000E
E0000E
E0000E
E0000E
E0000E
E0000E
E0000E
E0000E
E0000E
E0000E
E0000E
E0000E
E0000E
E0000E
E0000E
FFFFFE
7FFFFC
3FFFF8
ENDCHAR
STARTCHAR V
ENCODING 86
SWIDTH 1003 0
DWIDTH 32 0
BBX 30 23 1 0
BITMAP
E000003C
70000038
38000070
38000070
1C0000E0
1C0000E0
0E0001C0
0E000380
07000380
03800700
03800700
01C00E00
01C00E00
00E01C00
00703800
00703800
00387000
00387000
001CE000
001CC000
000FC000
00078000
00078000
ENDCHAR
STARTCHAR W
ENCODING 87
SWIDTH 1179 0
DWIDTH 38 0
BBX 36 23 1 0
BITMAP
E000F00070
6000F000E0
7001F000E0
7001F800C0
3801F801C0
38039801C0
38039C0180
1C031C0380
1C070E0380
0C070E0700
0E06060700
0E0E070700
060E070E00
071C030E00
071C038C00
039C039C00
03B801DC00
03B801D800
01F001F800
01F000F800
00F000F000
00E0007000
00E0007000
ENDCHAR
STARTCHAR X
ENCODING 88
SWIDTH 812 0
DWIDTH 26 0
BBX 23 23 1 0
BITMAP
F0001E
38001C
1C0038
1E0070
0F00E0
0701E0
0383C0
01C380
00E700
00FE00
007C00
003C00
007C00
00FE00
00E700
01C380
0383C0
0701E0
0F00E0
1E0070
1C0038
38001C
F0001E
ENDCHAR
STARTCHAR Y
ENCODING 89
SWIDTH 806 0
DWIDTH 26 0
BBX 25 23 0 0
BITMAP
F0000780
78000E00
38000E00
1C001C00
0E003800
0F007800
0780F000
0380E000
01C1C000
01E3C000
00F78000
007F0000
003E0000
003E0000
001C0000
001C0000
001C0000
001C0000
001C0000
001C0000
001C0000
001C0000
001C0000
ENDCHAR
STARTCHAR Z
ENCODING 90
SWIDTH 821 0
DWIDTH 26 0
BBX 23 23 2 0
BITMAP
FFFFFE
FFFFFE
FFFFFE
00001E
000038
000070
0001E0
0003C0
000780
000E00
001C00
007800
00F000
01E000
038000
070000
1E0000
3C0000
700000
E00000
FFFFFE
FFFFFE
FFFFFE
ENDCHAR
STARTCHAR bracketleft
ENCODING 91
SWIDTH 275 0
DWIDTH 9 0
BBX 5 23 2 0
BITMAP
F8
F8
F8
E0
E0
E0
E0
E0
E0
E0
E0
E0
E0
E0
E0
E0
E0
E0
E0
E0
F8
F8
F8
ENDCHAR
STARTCHAR backslash
ENCODING 92
SWIDTH 520 0
DWIDTH 17 0
BBX 16 23 0 0
BITMAP
8000
8000
C000
E000
7000
3800
1C00
0C00
0E00
0700
0380
01C0
00C0
0060
0070
0038
001C
000E
0006
0007
0003
0001
0001
ENDCHAR
STARTCHAR bracketright
ENCODING 93
SWIDTH 276 0
DWIDTH 9 0
BBX 5 23 2 0
BITMAP
F8
F8
F8
38
38
38
38
38
38
38
38
38
38
38
38
38
38
38
38
38
F8
F8
F8
ENDCHAR
STARTCHAR underscore
ENCODING 95
SWIDTH 828 0
DWIDTH 27 0
BBX 23 3 2 -3
BITMAP
FFFFFE
FFFFFE
FFFFFE
ENDCHAR
STARTCHAR grave
ENCODING 96
SWIDTH 213 0
DWIDTH 7 0
BBX 4 4 1 28
BITMAP
E0
E0
60
70
ENDCHAR
STARTCHAR a
ENCODING 97
SWIDTH 694 0
DWIDTH 23 0
BBX 19 19 2 0
BITMAP
FFFF80
FFFFC0
FFFFE0
0000E0
0000E0
0000E0
0000E0
0000E0
FFFFE0
FFFFE0
FFFFE0
E000E0
E000E0
E000E0
E000E0
E000E0
FFFFE0
7FFFE0
3FFFE0
ENDCHAR
STARTCHAR b
ENCODING 98
SWIDTH 667 0
DWIDTH 22 0
BBX 19 25 2 0
BITMAP
E00000
E00000
E00000
E00000
E00000
E00000
FFFF80
FFFFC0
FFFFE0
E000E0
E000E0
E000E0
E000E0
E000E0
E000E0
E000E0
E000E0
E000E0
E000E0
E000E0
E000E0
E000E0
FFFFE0
FFFFC0
FFFF80
ENDCHAR
STARTCHAR c
ENCODING 99
SWIDTH 695 0
DWIDTH 22 0
BBX 19 19 1 0
BITMAP
3FFFE0
7FFFE0
FFFFE0
E00000
E00000
E00000
E00000
E00000
E00000
E00000
E00000
E00000
E00000
E00000
E00000
E00000
FFFFE0
7FFFE0
3FFFE0
ENDCHAR
STARTCHAR d
ENCODING 100
SWIDTH 667 0
DWIDTH 22 0
BBX 19 25 1 0
BITMAP
0000E0
0000E0
0000E0
0000E0
0000E0
0000E0
3FFFE0
7FFFE0
FFFFE0
E000E0
E000E0
E000E0
E000E0
E000E0
E000E0
E000E0
E000E0
E000E0
E000E0
E000E0
E000E0
E000E0
FFFFE0
7FFFE0
3FFFE0
ENDCHAR
STARTCHAR e
ENCODING 101
SWIDTH 692 0
DWIDTH 23 0
BBX 19 19 2 0
BITMAP
3FFF80
7FFFC0
FFFFE0
E000E0
E000E0
E000E0
E000E0
E000E0
FFFFE0
FFFFE0
FFFFE0
E00000
E00000
E00000
E00000
E00000
FFFFE0
7FFFE0
3FFFE0
ENDCHAR
STARTCHAR f
ENCODING 102
SWIDTH 407 0
DWIDTH 13 0
BBX 11 25 2 0
BITMAP
3FE0
7FE0
FFE0
E000
E000
E000
FFE0
FFE0
FFE0
E000
E000
E000
E000
E000
E000
E000
E000
E000
E000
E000
E000
E000
E000
E000
E000
ENDCHAR
STARTCHAR g
ENCODING 103
SWIDTH 683 0
DWIDTH 23 0
BBX 20 26 1 -7
BITMAP
3FFFC0
7FFFE0
FFFFF0
E00070
E00070
E00070
E00070
E00070
E00070
E00070
E00070
E00070
E00070
E00070
E00070
E00070
FFFFF0
7FFFF0
3FFFF0
000070
000070
000070
000070
0FFFF0
0FFFE0
0FFFC0
ENDCHAR
STARTCHAR h
ENCODING 104
SWIDTH 668 0
DWIDTH 22 0
BBX 19 25 2 0
BITMAP
E00000
E00000
E00000
E00000
E00000
E00000
FFFF80
FFFFC0
FFFFE0
E000E0
E000E0
E000E0
E000E0
E000E0
E000E0
E000E0
E000E0
E000E0
E000E0
E000E0
E000E0
E000E0
E000E0
E000E0
E000E0
ENDCHAR
STARTCHAR i
ENCODING 105
SWIDTH 208 0
DWIDTH 7 0
BBX 3 25 1 0
BITMAP
E0
E0
E0
00
00
00
E0
E0
E0
E0
E0
E0
E0
E0
E0
E0
E0
E0
E0
E0
E0
E0
E0
E0
E0
ENDCHAR
STARTCHAR j
ENCODING 106
SWIDTH 239 0
DWIDTH 8 0
BBX 12 33 -6 -8
BITMAP
0070
0070
0070
0000
0000
0000
0070
0070
0070
0070
0070
0070
0070
0070
0070
0070
0070
0070
0070
0070
0070
0070
0070
0070
0070
0070
0070
0070
0070
0070
FFF0
FFE0
FFC0
ENDCHAR
STARTCHAR k
ENCODING 107
SWIDTH 646 0
DWIDTH 21 0
BBX 19 25 2 0
BITMAP
E00000
E00000
E00000
E00000
E00000
E00000
E001E0
E003C0
E00780
E00F00
E01E00
E03C00
E07800
E07000
FFE000
FFE000
FFE000
E07000
E07800
E03C00
E01E00
E00F00
E00780
E003C0
E001E0
ENDCHAR
STARTCHAR l
ENCODING 108
SWIDTH 302 0
DWIDTH 10 0
BBX 7 25 1 0
BITMAP
E0
E0
E0
E0
E0
E0
E0
E0
E0
E0
E0
E0
E0
E0
E0
E0
E0
E0
E0
E0
E0
E0
FE
7E
3E
ENDCHAR
STARTCHAR m
ENCODING 109
SWIDTH 978 0
DWIDTH 31 0
BBX 28 19 2 0
BITMAP
FFFFFFC0
FFFFFFE0
FFFFFFF0
E00E0070
E00E0070
E00E0070
E00E0070
E00E0070
E00E0070
E00E0070
E00E0070
E00E0070
E00E0070
E00E0070
E00E0070
E00E0070
E00E0070
E00E0070
E00E0070
ENDCHAR
STARTCHAR n
ENCODING 110
SWIDTH 696 0
DWIDTH 23 0
BBX 19 19 2 0
BITMAP
FFFF80
FFFFC0
FFFFE0
E000E0
E000E0
E000E0
E000E0
E000E0
E000E0
E000E0
E000E0
E000E0
E000E0
E000E0
E000E0
E000E0
E000E0
E000E0
E000E0
ENDCHAR
STARTCHAR o
ENCODING 111
SWIDTH 692 0
DWIDTH 23 0
BBX 19 19 2 0
BITMAP
3FFF80
7FFFC0
FFFFE0
E000E0
E000E0
E000E0
E000E0
E000E0
E000E0
E000E0
E000E0
E000E0
E000E0
E000E0
E000E0
E000E0
FFFFE0
7FFFC0
3FFF80
ENDCHAR
STARTCHAR p
ENCODING 112
SWIDTH 664 0
DWIDTH 22 0
BBX 19 26 2 -7
BITMAP
FFFF80
FFFFC0
FFFFE0
E000E0
E000E0
E000E0
E000E0
E000E0
E000E0
E000E0
E000E0
E000E0
E000E0
E000E0
E000E0
E000E0
FFFFE0
FFFFC0
FFFF80
E00000
E00000
E00000
E00000
E00000
E00000
E00000
ENDCHAR
STARTCHAR q
ENCODING 113
SWIDTH 664 0
DWIDTH 22 0
BBX 19 26 1 -7
BITMAP
3FFFE0
7FFFE0
FFFFE0
E000E0
E000E0
E000E0
E000E0
E000E0
E000E0
E000E0
E000E0
E000E0
E000E0
E000E0
E000E0
E000E0
FFFFE0
7FFFE0
3FFFE0
0000E0
0000E0
0000E0
0000E0
0000E0
0000E0
0000E0
ENDCHAR
STARTCHAR r
ENCODING 114
SWIDTH 512 0
DWIDTH 16 0
BBX 15 19 1 0
BITMAP
3FFE
7FFE
FFFE
E000
E000
E000
E000
E000
E000
E000
E000
E000
E000
E000
E000
E000
E000
E000
E000
ENDCHAR
STARTCHAR s
ENCODING 115
SWIDTH 686 0
DWIDTH 23 0
BBX 19 19 2 0
BITMAP
3FFF80
7FFFC0
FFFFE0
E000E0
E00000
E00000
E00000
E00000
FFFF80
7FFFC0
3FFFE0
0000E0
0000E0
0000E0
0000E0
E000E0
FFFFE0
7FFFC0
3FFF80
ENDCHAR
STARTCHAR t
ENCODING 116
SWIDTH 410 0
DWIDTH 13 0
BBX 11 25 2 0
BITMAP
E000
E000
E000
E000
E000
E000
FFE0
FFE0
FFE0
E000
E000
E000
E000
E000
E000
E000
E000
E000
E000
E000
E000
E000
FFE0
7FE0
3FE0
ENDCHAR
STARTCHAR u
ENCODING 117
SWIDTH 695 0
DWIDTH 23 0
BBX 19 19 2 0
BITMAP
E000E0
E000E0
E000E0
E000E0
E000E0
E000E0
E000E0
E000E0
E000E0
E000E0
E000E0
E000E0
E000E0
E000E0
E000E0
E000E0
FFFFE0
7FFFC0
3FFF80
ENDCHAR
STARTCHAR v
ENCODING 118
SWIDTH 790 0
DWIDTH 25 0
BBX 23 19 1 0
BITMAP
E0000E
F0001C
70001C
380038
380038
1C0070
1C0070
0E00E0
0E00E0
0701C0
0701C0
038380
038300
01C700
01CE00
00EE00
007C00
007C00
003800
ENDCHAR
STARTCHAR w
ENCODING 119
SWIDTH 1071 0
DWIDTH 34 0
BBX 32 19 1 0
BITMAP
E003C007
7003E007
7007E007
7007F00E
3807700E
380E700C
1C0E381C
1C1E381C
1C1C1C38
0E1C1C38
0E381E38
0F380E70
07700F70
07700770
03F007E0
03E003E0
03E003C0
01C001C0
01C001C0
ENDCHAR
STARTCHAR x
ENCODING 120
SWIDTH 692 0
DWIDTH 22 0
BBX 19 19 1 0
BITMAP
F000E0
3801C0
1C0380
1E0780
0F0F00
079E00
03BC00
01F800
00F000
00F000
01F800
03F800
039C00
071E00
0F0F00
1E0780
3C0380
3801C0
F000E0
ENDCHAR
STARTCHAR y
ENCODING 121
SWIDTH 685 0
DWIDTH 23 0
BBX 20 27 1 -8
BITMAP
E00070
E00070
E00070
E00070
E00070
E00070
E00070
E00070
E00070
E00070
E00070
E00070
E00070
E00070
E00070
E00070
FFFFF0
7FFFF0
3FFFF0
000070
000070
000070
000070
000070
0FFFF0
0FFFE0
0FFFC0
ENDCHAR
STARTCHAR z
ENCODING 122
SWIDTH 698 0
DWIDTH 22 0
BBX 19 19 2 0
BITMAP
FFFFE0
FFFFE0
FFFFE0
0001E0
000380
000700
001E00
003C00
007000
01E000
03C000
070000
1E0000
3C0000
780000
E00000
FFFFE0
FFFFE0
FFFFE0
ENDCHAR
STARTCHAR braceleft
ENCODING 123
SWIDTH 289 0
DWIDTH 9 0
BBX 7 23 0 0
BITMAP
0E
1E
3E
38
38
38
38
38
38
78
F0
C0
F0
78
38
38
38
38
38
38
3E
1E
0E
ENDCHAR
STARTCHAR bar
ENCODING 124
SWIDTH 214 0
DWIDTH 7 0
BBX 3 31 2 -4
BITMAP
E0
E0
E0
E0
E0
E0
E0
E0
E0
E0
E0
E0
E0
E0
E0
E0
E0
E0
E0
E0
E0
E0
E0
E0
E0
E0
E0
E0
E0
E0
E0
ENDCHAR
STARTCHAR braceright
ENCODING 125
SWIDTH 289 0
DWIDTH 9 0
BBX 6 23 2 0
BITMAP
E0
F0
F8
38
38
38
38
38
38
3C
1C
04
1C
3C
38
38
38
38
38
38
F8
F0
E0
ENDCHAR
STARTCHAR asciitilde
ENCODING 126
SWIDTH 404 0
DWIDTH 13 0
BBX 11 3 1 8
BITMAP
F000
0E00
03E0
ENDCHAR
STARTCHAR space.dup1
ENCODING 160
SWIDTH 272 0
DWIDTH 9 0
BBX 1 1 0 0
BITMAP
00
ENDCHAR
STARTCHAR exclamdown
ENCODING 161
SWIDTH 210 0
DWIDTH 7 0
BBX 3 23 2 0
BITMAP
E0
E0
E0
00
00
00
E0
E0
E0
E0
E0
E0
E0
E0
E0
E0
E0
E0
E0
E0
E0
E0
E0
ENDCHAR
STARTCHAR cent
ENCODING 162
SWIDTH 636 0
DWIDTH 20 0
BBX 19 27 1 -4
BITMAP
00E000
00E000
00E000
00E000
3FFFE0
7FFFE0
FFFFE0
E0E000
E0E000
E0E000
E0E000
E0E000
E0E000
E0E000
E0E000
E0E000
E0E000
E0E000
E0E000
E0E000
FFFFE0
7FFFE0
3FFFE0
00E000
00E000
00E000
00E000
ENDCHAR
STARTCHAR sterling
ENCODING 163
SWIDTH 734 0
DWIDTH 23 0
BBX 21 23 1 0
BITMAP
07FFE0
0FFFF0
1FFFF8
1C0038
1C0000
1C0000
1C0000
1C0000
1C0000
1C0000
FFFF80
FFFF80
FFFF80
1C0000
1C0000
1C0000
1C0000
1C0000
1C0000
1C0000
FFFFF8
FFFFF8
FFFFF8
ENDCHAR
STARTCHAR dieresis
ENCODING 168
SWIDTH 385 0
DWIDTH 12 0
BBX 8 3 2 28
BITMAP
E7
E7
E7
ENDCHAR
STARTCHAR degree
ENCODING 176
SWIDTH 439 0
DWIDTH 14 0
BBX 11 10 1 13
BITMAP
3F80
7FC0
C060
C060
C060
C060
C060
C060
7FC0
3F80
ENDCHAR
STARTCHAR acute
ENCODING 180
SWIDTH 213 0
DWIDTH 7 0
BBX 4 4 1 28
BITMAP
70
60
E0
E0
ENDCHAR
STARTCHAR paragraph
ENCODING 182
SWIDTH 833 0
DWIDTH 27 0
BBX 23 23 2 0
BITMAP
3FFFFE
7FFFFE
FFFFFE
E0070E
E0070E
E0070E
E0070E
E0070E
E0070E
E0070E
E0070E
E0070E
FFFFFE
7FFFFE
3FFFFE
00070E
00070E
00070E
00070E
00070E
00070E
00070E
00070E
ENDCHAR
STARTCHAR cedilla
ENCODING 184
SWIDTH 213 0
DWIDTH 7 0
BBX 4 4 1 -5
BITMAP
70
60
E0
E0
ENDCHAR
STARTCHAR questiondown
ENCODING 191
SWIDTH 675 0
DWIDTH 22 0
BBX 21 23 1 0
BITMAP
000700
000700
000700
000000
000000
000000
000700
000700
3FFF00
7FFE00
FFFC00
E00000
E00000
E00000
E00000
E00000
E00000
E00000
E00000
E00000
FFFFF8
7FFFF8
3FFFF8
ENDCHAR
STARTCHAR Agrave
ENCODING 192
SWIDTH 836 0
DWIDTH 27 0
BBX 23 32 2 0
BITMAP
007000
007000
003000
003800
000000
000000
000000
000000
000000
3FFFF8
7FFFFC
FFFFFE
E0000E
E0000E
E0000E
E0000E
E0000E
E0000E
E0000E
E0000E
E0000E
FFFFFE
FFFFFE
FFFFFE
E0000E
E0000E
E0000E
E0000E
E0000E
E0000E
E0000E
E0000E
ENDCHAR
STARTCHAR Aacute
ENCODING 193
SWIDTH 836 0
DWIDTH 27 0
BBX 23 32 2 0
BITMAP
003800
003000
007000
007000
000000
000000
000000
000000
000000
3FFFF8
7FFFFC
FFFFFE
E0000E
E0000E
E0000E
E0000E
E0000E
E0000E
E0000E
E0000E
E0000E
FFFFFE
FFFFFE
FFFFFE
E0000E
E0000E
E0000E
E0000E
E0000E
E0000E
E0000E
E0000E
ENDCHAR
STARTCHAR Acircumflex
ENCODING 194
SWIDTH 836 0
DWIDTH 27 0
BBX 23 32 2 0
BITMAP
007000
005000
00C800
008C00
010000
000000
000000
000000
000000
3FFFF8
7FFFFC
FFFFFE
E0000E
E0000E
E0000E
E0000E
E0000E
E0000E
E0000E
E0000E
E0000E
FFFFFE
FFFFFE
FFFFFE
E0000E
E0000E
E0000E
E0000E
E0000E
E0000E
E0000E
E0000E
ENDCHAR
STARTCHAR Atilde
ENCODING 195
SWIDTH 836 0
DWIDTH 27 0
BBX 23 32 2 0
BITMAP
03C000
03F000
003F80
000F80
000000
000000
000000
000000
000000
3FFFF8
7FFFFC
FFFFFE
E0000E
E0000E
E0000E
E0000E
E0000E
E0000E
E0000E
E0000E
E0000E
FFFFFE
FFFFFE
FFFFFE
E0000E
E0000E
E0000E
E0000E
E0000E
E0000E
E0000E
E0000E
ENDCHAR
STARTCHAR Adieresis
ENCODING 196
SWIDTH 836 0
DWIDTH 27 0
BBX 23 30 2 0
BITMAP
01CE00
01CE00
01CE00
000000
000000
000000
000000
3FFFF8
7FFFFC
FFFFFE
E0000E
E0000E
E0000E
E0000E
E0000E
E0000E
E0000E
E0000E
E0000E
FFFFFE
FFFFFE
FFFFFE
E0000E
E0000E
E0000E
E0000E
E0000E
E0000E
E0000E
E0000E
ENDCHAR
STARTCHAR Aring
ENCODING 197
SWIDTH 836 0
DWIDTH 27 0
BBX 23 31 2 0
BITMAP
007800
004400
004400
007800
000000
000000
000000
000000
3FFFF8
7FFFFC
FFFFFE
E0000E
E0000E
E0000E
E0000E
E0000E
E0000E
E0000E
E0000E
E0000E
FFFFFE
FFFFFE
FFFFFE
E0000E
E0000E
E0000E
E0000E
E0000E
E0000E
E0000E
E0000E
ENDCHAR
STARTCHAR AE
ENCODING 198
SWIDTH 1375 0
DWIDTH 44 0
BBX 41 23 2 0
BITMAP
3FFFFFFFFF80
7FFFFFFFFF80
FFFFFFFFFF80
E0000E000000
E0000E000000
E0000E000000
E0000E000000
E0000E000000
E0000E000000
E0000E000000
E0000FFFFC00
E0000FFFFC00
FFFFFFFFFC00
FFFFFE000000
FFFFFE000000
E0000E000000
E0000E000000
E0000E000000
E0000E000000
E0000E000000
E0000FFFFF80
E0000FFFFF80
E0000FFFFF80
ENDCHAR
STARTCHAR Ccedilla
ENCODING 199
SWIDTH 822 0
DWIDTH 26 0
BBX 23 27 2 -4
BITMAP
3FFFFE
7FFFFE
FFFFFE
E00000
E00000
E00000
E00000
E00000
E00000
E00000
E00000
E00000
E00000
E00000
E00000
E00000
E00000
E00000
E00000
E00000
FFFFFE
7FFFFE
3FFFFE
003800
003800
003000
007000
ENDCHAR
STARTCHAR Egrave
ENCODING 200
SWIDTH 766 0
DWIDTH 25 0
BBX 21 32 2 0
BITMAP
00E000
00E000
006000
006000
001000
000000
000000
000000
000000
FFFFF8
FFFFF8
FFFFF8
E00000
E00000
E00000
E00000
E00000
E00000
E00000
FFFFC0
FFFFC0
FFFFC0
E00000
E00000
E00000
E00000
E00000
E00000
E00000
FFFFF8
FFFFF8
FFFFF8
ENDCHAR
STARTCHAR Eacute
ENCODING 201
SWIDTH 766 0
DWIDTH 25 0
BBX 21 32 2 0
BITMAP
007000
006000
00E000
00E000
000000
000000
000000
000000
000000
FFFFF8
FFFFF8
FFFFF8
E00000
E00000
E00000
E00000
E00000
E00000
E00000
FFFFC0
FFFFC0
FFFFC0
E00000
E00000
E00000
E00000
E00000
E00000
E00000
FFFFF8
FFFFF8
FFFFF8
ENDCHAR
STARTCHAR Ecircumflex
ENCODING 202
SWIDTH 766 0
DWIDTH 25 0
BBX 21 32 2 0
BITMAP
00E000
00A000
01B000
011000
020000
000000
000000
000000
000000
FFFFF8
FFFFF8
FFFFF8
E00000
E00000
E00000
E00000
E00000
E00000
E00000
FFFFC0
FFFFC0
FFFFC0
E00000
E00000
E00000
E00000
E00000
E00000
E00000
FFFFF8
FFFFF8
FFFFF8
ENDCHAR
STARTCHAR Edieresis
ENCODING 203
SWIDTH 766 0
DWIDTH 25 0
BBX 21 31 2 0
BITMAP
039C00
039C00
039C00
000000
000000
000000
000000
000000
FFFFF8
FFFFF8
FFFFF8
E00000
E00000
E00000
E00000
E00000
E00000
E00000
FFFFC0
FFFFC0
FFFFC0
E00000
E00000
E00000
E00000
E00000
E00000
E00000
FFFFF8
FFFFF8
FFFFF8
ENDCHAR
STARTCHAR Igrave
ENCODING 204
SWIDTH 220 0
DWIDTH 7 0
BBX 4 32 1 0
BITMAP
E0
60
60
70
00
00
00
00
00
70
70
70
70
70
70
70
70
70
70
70
70
70
70
70
70
70
70
70
70
70
70
70
ENDCHAR
STARTCHAR Iacute
ENCODING 205
SWIDTH 220 0
DWIDTH 7 0
BBX 4 32 1 0
BITMAP
70
60
60
E0
00
00
00
00
00
70
70
70
70
70
70
70
70
70
70
70
70
70
70
70
70
70
70
70
70
70
70
70
ENDCHAR
STARTCHAR Icircumflex
ENCODING 206
SWIDTH 220 0
DWIDTH 7 0
BBX 6 32 0 0
BITMAP
30
78
C8
8C
00
00
00
00
00
38
38
38
38
38
38
38
38
38
38
38
38
38
38
38
38
38
38
38
38
38
38
38
ENDCHAR
STARTCHAR Idieresis
ENCODING 207
SWIDTH 220 0
DWIDTH 7 0
BBX 8 31 -1 0
BITMAP
E7
E7
E7
00
00
00
00
00
1C
1C
1C
1C
1C
1C
1C
1C
1C
1C
1C
1C
1C
1C
1C
1C
1C
1C
1C
1C
1C
1C
1C
ENDCHAR
STARTCHAR Ntilde
ENCODING 209
SWIDTH 832 0
DWIDTH 27 0
BBX 23 32 2 0
BITMAP
03C000
03F000
003F80
000F80
000000
000000
000000
000000
000000
F0000E
F8000E
FC000E
FC000E
EE000E
E7000E
E3800E
E1C00E
E0C00E
E0E00E
E0700E
E0380E
E01C0E
E00E0E
E0060E
E0070E
E0038E
E001CE
E000EE
E0007E
E0007E
E0003E
E0001E
ENDCHAR
STARTCHAR Ograve
ENCODING 210
SWIDTH 828 0
DWIDTH 27 0
BBX 23 32 2 0
BITMAP
007000
007000
003000
003000
000800
000000
000000
000000
000000
3FFFF8
7FFFFC
FFFFFE
E0000E
E0000E
E0000E
E0000E
E0000E
E0000E
E0000E
E0000E
E0000E
E0000E
E0000E
E0000E
E0000E
E0000E
E0000E
E0000E
E0000E
FFFFFE
7FFFFC
3FFFF8
ENDCHAR
STARTCHAR Oacute
ENCODING 211
SWIDTH 828 0
DWIDTH 27 0
BBX 23 32 2 0
BITMAP
003800
003000
007000
007000
000000
000000
000000
000000
000000
3FFFF8
7FFFFC
FFFFFE
E0000E
E0000E
E0000E
E0000E
E0000E
E0000E
E0000E
E0000E
E0000E
E0000E
E0000E
E0000E
E0000E
E0000E
E0000E
E0000E
E0000E
FFFFFE
7FFFFC
3FFFF8
ENDCHAR
STARTCHAR Ocircumflex
ENCODING 212
SWIDTH 828 0
DWIDTH 27 0
BBX 23 32 2 0
BITMAP
007000
005000
00D800
008800
010000
000000
000000
000000
000000
3FFFF8
7FFFFC
FFFFFE
E0000E
E0000E
E0000E
E0000E
E0000E
E0000E
E0000E
E0000E
E0000E
E0000E
E0000E
E0000E
E0000E
E0000E
E0000E
E0000E
E0000E
FFFFFE
7FFFFC
3FFFF8
ENDCHAR
STARTCHAR Otilde
ENCODING 213
SWIDTH 828 0
DWIDTH 27 0
BBX 23 32 2 0
BITMAP
03C000
03F000
003F00
000F00
000000
000000
000000
000000
000000
3FFFF8
7FFFFC
FFFFFE
E0000E
E0000E
E0000E
E0000E
E0000E
E0000E
E0000E
E0000E
E0000E
E0000E
E0000E
E0000E
E0000E
E0000E
E0000E
E0000E
E0000E
FFFFFE
7FFFFC
3FFFF8
ENDCHAR
STARTCHAR Odieresis
ENCODING 214
SWIDTH 828 0
DWIDTH 27 0
BBX 23 31 2 0
BITMAP
01CE00
01CE00
01CE00
000000
000000
000000
000000
000000
3FFFF8
7FFFFC
FFFFFE
E0000E
E0000E
E0000E
E0000E
E0000E
E0000E
E0000E
E0000E
E0000E
E0000E
E0000E
E0000E
E0000E
E0000E
E0000E
E0000E
E0000E
FFFFFE
7FFFFC
3FFFF8
ENDCHAR
STARTCHAR multiply
ENCODING 215
SWIDTH 546 0
DWIDTH 17 0
BBX 13 13 2 3
BITMAP
F038
7070
38E0
3DE0
1DC0
0F80
0700
0F80
1DC0
3DE0
38E0
7070
F038
ENDCHAR
STARTCHAR Ugrave
ENCODING 217
SWIDTH 828 0
DWIDTH 27 0
BBX 23 32 2 0
BITMAP
007000
007000
003000
003000
000800
000000
000000
000000
000000
E0000E
E0000E
E0000E
E0000E
E0000E
E0000E
E0000E
E0000E
E0000E
E0000E
E0000E
E0000E
E0000E
E0000E
E0000E
E0000E
E0000E
E0000E
E0000E
E0000E
FFFFFE
7FFFFC
3FFFF8
ENDCHAR
STARTCHAR Uacute
ENCODING 218
SWIDTH 828 0
DWIDTH 27 0
BBX 23 32 2 0
BITMAP
003800
003000
007000
007000
000000
000000
000000
000000
000000
E0000E
E0000E
E0000E
E0000E
E0000E
E0000E
E0000E
E0000E
E0000E
E0000E
E0000E
E0000E
E0000E
E0000E
E0000E
E0000E
E0000E
E0000E
E0000E
E0000E
FFFFFE
7FFFFC
3FFFF8
ENDCHAR
STARTCHAR Ucircumflex
ENCODING 219
SWIDTH 828 0
DWIDTH 27 0
BBX 23 32 2 0
BITMAP
007000
005000
00D800
008800
010000
000000
000000
000000
000000
E0000E
E0000E
E0000E
E0000E
E0000E
E0000E
E0000E
E0000E
E0000E
E0000E
E0000E
E0000E
E0000E
E0000E
E0000E
E0000E
E0000E
E0000E
E0000E
E0000E
FFFFFE
7FFFFC
3FFFF8
ENDCHAR
STARTCHAR Udieresis
ENCODING 220
SWIDTH 828 0
DWIDTH 27 0
BBX 23 31 2 0
BITMAP
01CE00
01CE00
01CE00
000000
000000
000000
000000
000000
E0000E
E0000E
E0000E
E0000E
E0000E
E0000E
E0000E
E0000E
E0000E
E0000E
E0000E
E0000E
E0000E
E0000E
E0000E
E0000E
E0000E
E0000E
E0000E
E0000E
FFFFFE
7FFFFC
3FFFF8
ENDCHAR
STARTCHAR Yacute
ENCODING 221
SWIDTH 806 0
DWIDTH 26 0
BBX 25 32 0 0
BITMAP
001C0000
001C0000
00180000
00180000
00000000
00000000
00000000
00000000
00000000
F0000780
78000E00
38000E00
1C001C00
0E003800
0F007800
0780F000
0380E000
01C1C000
01E3C000
00F78000
007F0000
003E0000
003E0000
001C0000
001C0000
001C0000
001C0000
001C0000
001C0000
001C0000
001C0000
001C0000
ENDCHAR
STARTCHAR germandbls
ENCODING 223
SWIDTH 833 0
DWIDTH 27 0
BBX 23 23 2 0
BITMAP
3FFFF8
7FFFFC
FFFFFE
E0000E
E0000E
E0000E
E0000E
E0000E
E0000E
E0000E
E1FFFC
E1FFFC
E0000E
E0000E
E0000E
E0000E
E0000E
E0000E
E0000E
E0000E
E1FFFE
E1FFFC
E1FFF8
ENDCHAR
STARTCHAR agrave
ENCODING 224
SWIDTH 725 0
DWIDTH 23 0
BBX 19 29 2 0
BITMAP
01C000
00C000
00C000
00E000
000000
000000
000000
000000
000000
000000
FFFF80
FFFFC0
FFFFE0
0000E0
0000E0
0000E0
0000E0
0000E0
FFFFE0
FFFFE0
FFFFE0
E000E0
E000E0
E000E0
E000E0
E000E0
FFFFE0
7FFFE0
3FFFE0
ENDCHAR
STARTCHAR aacute
ENCODING 225
SWIDTH 725 0
DWIDTH 23 0
BBX 19 29 2 0
BITMAP
00E000
00C000
00C000
01C000
000000
000000
000000
000000
000000
000000
FFFF80
FFFFC0
FFFFE0
0000E0
0000E0
0000E0
0000E0
0000E0
FFFFE0
FFFFE0
FFFFE0
E000E0
E000E0
E000E0
E000E0
E000E0
FFFFE0
7FFFE0
3FFFE0
ENDCHAR
STARTCHAR acircumflex
ENCODING 226
SWIDTH 725 0
DWIDTH 23 0
BBX 19 29 2 0
BITMAP
00C000
01E000
012000
023000
000000
000000
000000
000000
000000
000000
FFFF80
FFFFC0
FFFFE0
0000E0
0000E0
0000E0
0000E0
0000E0
FFFFE0
FFFFE0
FFFFE0
E000E0
E000E0
E000E0
E000E0
E000E0
FFFFE0
7FFFE0
3FFFE0
ENDCHAR
STARTCHAR atilde
ENCODING 227
SWIDTH 725 0
DWIDTH 23 0
BBX 19 29 2 0
BITMAP
0F0000
0FC000
00FE00
003E00
000000
000000
000000
000000
000000
000000
FFFF80
FFFFC0
FFFFE0
0000E0
0000E0
0000E0
0000E0
0000E0
FFFFE0
FFFFE0
FFFFE0
E000E0
E000E0
E000E0
E000E0
E000E0
FFFFE0
7FFFE0
3FFFE0
ENDCHAR
STARTCHAR adieresis
ENCODING 228
SWIDTH 725 0
DWIDTH 23 0
BBX 19 28 2 0
BITMAP
073800
073800
073800
000000
000000
000000
000000
000000
000000
FFFF80
FFFFC0
FFFFE0
0000E0
0000E0
0000E0
0000E0
0000E0
FFFFE0
FFFFE0
FFFFE0
E000E0
E000E0
E000E0
E000E0
E000E0
FFFFE0
7FFFE0
3FFFE0
ENDCHAR
STARTCHAR aring
ENCODING 229
SWIDTH 725 0
DWIDTH 23 0
BBX 19 28 2 0
BITMAP
01E000
011000
011000
01E000
000000
000000
000000
000000
000000
FFFF80
FFFFC0
FFFFE0
0000E0
0000E0
0000E0
0000E0
0000E0
FFFFE0
FFFFE0
FFFFE0
E000E0
E000E0
E000E0
E000E0
E000E0
FFFFE0
7FFFE0
3FFFE0
ENDCHAR
STARTCHAR ae
ENCODING 230
SWIDTH 1178 0
DWIDTH 38 0
BBX 35 19 2 0
BITMAP
FFFFFFFF80
FFFFFFFFC0
FFFFFFFFE0
0000E000E0
0000E000E0
0000E000E0
0000E000E0
0000E000E0
FFFFFFFFE0
FFFFFFFFE0
FFFFFFFFE0
E000E00000
E000E00000
E000E00000
E000E00000
E000E00000
FFFFFFFFE0
7FFFFFFFE0
3FFFFFFFE0
ENDCHAR
STARTCHAR ccedilla
ENCODING 231
SWIDTH 693 0
DWIDTH 22 0
BBX 19 23 1 -4
BITMAP
3FFFE0
7FFFE0
FFFFE0
E00000
E00000
E00000
E00000
E00000
E00000
E00000
E00000
E00000
E00000
E00000
E00000
E00000
FFFFE0
7FFFE0
3FFFE0
00E000
00E000
00C000
01C000
ENDCHAR
STARTCHAR egrave
ENCODING 232
SWIDTH 638 0
DWIDTH 20 0
BBX 19 29 2 0
BITMAP
038000
038000
018000
018000
004000
000000
000000
000000
000000
000000
3FFF80
7FFFC0
FFFFE0
E000E0
E000E0
E000E0
E000E0
E000E0
FFFFE0
FFFFE0
FFFFE0
E00000
E00000
E00000
E00000
E00000
FFFFE0
7FFFE0
3FFFE0
ENDCHAR
STARTCHAR eacute
ENCODING 233
SWIDTH 638 0
DWIDTH 20 0
BBX 19 29 2 0
BITMAP
018000
018000
038000
038000
000000
000000
000000
000000
000000
000000
3FFF80
7FFFC0
FFFFE0
E000E0
E000E0
E000E0
E000E0
E000E0
FFFFE0
FFFFE0
FFFFE0
E00000
E00000
E00000
E00000
E00000
FFFFE0
7FFFE0
3FFFE0
ENDCHAR
STARTCHAR ecircumflex
ENCODING 234
SWIDTH 638 0
DWIDTH 20 0
BBX 19 29 2 0
BITMAP
038000
028000
06C000
044000
082000
000000
000000
000000
000000
000000
3FFF80
7FFFC0
FFFFE0
E000E0
E000E0
E000E0
E000E0
E000E0
FFFFE0
FFFFE0
FFFFE0
E00000
E00000
E00000
E00000
E00000
FFFFE0
7FFFE0
3FFFE0
ENDCHAR
STARTCHAR edieresis
ENCODING 235
SWIDTH 638 0
DWIDTH 20 0
BBX 19 28 2 0
BITMAP
0E7000
0E7000
0E7000
000000
000000
000000
000000
000000
000000
3FFF80
7FFFC0
FFFFE0
E000E0
E000E0
E000E0
E000E0
E000E0
FFFFE0
FFFFE0
FFFFE0
E00000
E00000
E00000
E00000
E00000
FFFFE0
7FFFE0
3FFFE0
ENDCHAR
STARTCHAR igrave
ENCODING 236
SWIDTH 214 0
DWIDTH 7 0
BBX 3 29 1 0
BITMAP
C0
E0
E0
60
00
00
00
00
00
00
E0
E0
E0
E0
E0
E0
E0
E0
E0
E0
E0
E0
E0
E0
E0
E0
E0
E0
E0
ENDCHAR
STARTCHAR iacute
ENCODING 237
SWIDTH 214 0
DWIDTH 7 0
BBX 4 29 1 0
BITMAP
30
70
70
60
00
00
00
00
00
00
E0
E0
E0
E0
E0
E0
E0
E0
E0
E0
E0
E0
E0
E0
E0
E0
E0
E0
E0
ENDCHAR
STARTCHAR icircumflex
ENCODING 238
SWIDTH 214 0
DWIDTH 7 0
BBX 6 29 0 0
BITMAP
30
78
C8
8C
00
00
00
00
00
00
70
70
70
70
70
70
70
70
70
70
70
70
70
70
70
70
70
70
70
ENDCHAR
STARTCHAR idieresis
ENCODING 239
SWIDTH 214 0
DWIDTH 7 0
BBX 8 28 -1 0
BITMAP
E7
E7
E7
00
00
00
00
00
00
38
38
38
38
38
38
38
38
38
38
38
38
38
38
38
38
38
38
38
ENDCHAR
STARTCHAR ntilde
ENCODING 241
SWIDTH 708 0
DWIDTH 23 0
BBX 19 28 2 0
BITMAP
0F0000
0FC000
00FE00
003E00
000000
000000
000000
000000
000000
FFFF80
FFFFC0
FFFFE0
E000E0
E000E0
E000E0
E000E0
E000E0
E000E0
E000E0
E000E0
E000E0
E000E0
E000E0
E000E0
E000E0
E000E0
E000E0
E000E0
ENDCHAR
STARTCHAR ograve
ENCODING 242
SWIDTH 692 0
DWIDTH 23 0
BBX 19 29 2 0
BITMAP
018000
01C000
01C000
00C000
000000
000000
000000
000000
000000
000000
3FFF80
7FFFC0
FFFFE0
E000E0
E000E0
E000E0
E000E0
E000E0
E000E0
E000E0
E000E0
E000E0
E000E0
E000E0
E000E0
E000E0
FFFFE0
7FFFC0
3FFF80
ENDCHAR
STARTCHAR oacute
ENCODING 243
SWIDTH 692 0
DWIDTH 23 0
BBX 19 29 2 0
BITMAP
00C000
01C000
01C000
018000
000000
000000
000000
000000
000000
000000
3FFF80
7FFFC0
FFFFE0
E000E0
E000E0
E000E0
E000E0
E000E0
E000E0
E000E0
E000E0
E000E0
E000E0
E000E0
E000E0
E000E0
FFFFE0
7FFFC0
3FFF80
ENDCHAR
STARTCHAR ocircumflex
ENCODING 244
SWIDTH 692 0
DWIDTH 23 0
BBX 19 29 2 0
BITMAP
01C000
014000
026000
062000
001000
000000
000000
000000
000000
000000
3FFF80
7FFFC0
FFFFE0
E000E0
E000E0
E000E0
E000E0
E000E0
E000E0
E000E0
E000E0
E000E0
E000E0
E000E0
E000E0
E000E0
FFFFE0
7FFFC0
3FFF80
ENDCHAR
STARTCHAR otilde
ENCODING 245
SWIDTH 692 0
DWIDTH 23 0
BBX 19 28 2 0
BITMAP
1E0000
1FC000
00FC00
003C00
000000
000000
000000
000000
000000
3FFF80
7FFFC0
FFFFE0
E000E0
E000E0
E000E0
E000E0
E000E0
E000E0
E000E0
E000E0
E000E0
E000E0
E000E0
E000E0
E000E0
FFFFE0
7FFFC0
3FFF80
ENDCHAR
STARTCHAR odieresis
ENCODING 246
SWIDTH 692 0
DWIDTH 23 0
BBX 19 28 2 0
BITMAP
073800
073800
073800
000000
000000
000000
000000
000000
000000
3FFF80
7FFFC0
FFFFE0
E000E0
E000E0
E000E0
E000E0
E000E0
E000E0
E000E0
E000E0
E000E0
E000E0
E000E0
E000E0
E000E0
FFFFE0
7FFFC0
3FFF80
ENDCHAR
STARTCHAR divide
ENCODING 247
SWIDTH 508 0
DWIDTH 16 0
BBX 15 19 1 0
BITMAP
0380
0380
0380
0000
0000
0000
0000
0000
FFFE
FFFE
FFFE
0000
0000
0000
0000
0000
0380
0380
0380
ENDCHAR
STARTCHAR ugrave
ENCODING 249
SWIDTH 695 0
DWIDTH 23 0
BBX 19 29 2 0
BITMAP
018000
01C000
01C000
00C000
000000
000000
000000
000000
000000
000000
E000E0
E000E0
E000E0
E000E0
E000E0
E000E0
E000E0
E000E0
E000E0
E000E0
E000E0
E000E0
E000E0
E000E0
E000E0
E000E0
FFFFE0
7FFFC0
3FFF80
ENDCHAR
STARTCHAR uacute
ENCODING 250
SWIDTH 695 0
DWIDTH 23 0
BBX 19 29 2 0
BITMAP
00C000
01C000
01C000
018000
000000
000000
000000
000000
000000
000000
E000E0
E000E0
E000E0
E000E0
E000E0
E000E0
E000E0
E000E0
E000E0
E000E0
E000E0
E000E0
E000E0
E000E0
E000E0
E000E0
FFFFE0
7FFFC0
3FFF80
ENDCHAR
STARTCHAR ucircumflex
ENCODING 251
SWIDTH 695 0
DWIDTH 23 0
BBX 19 29 2 0
BITMAP
01C000
014000
036000
062000
001000
000000
000000
000000
000000
000000
E000E0
E000E0
E000E0
E000E0
E000E0
E000E0
E000E0
E000E0
E000E0
E000E0
E000E0
E000E0
E000E0
E000E0
E000E0
E000E0
FFFFE0
7FFFC0
3FFF80
ENDCHAR
STARTCHAR udieresis
ENCODING 252
SWIDTH 695 0
DWIDTH 23 0
BBX 19 28 2 0
BITMAP
073800
073800
073800
000000
000000
000000
000000
000000
000000
E000E0
E000E0
E000E0
E000E0
E000E0
E000E0
E000E0
E000E0
E000E0
E000E0
E000E0
E000E0
E000E0
E000E0
E000E0
E000E0
FFFFE0
7FFFC0
3FFF80
ENDCHAR
STARTCHAR yacute
ENCODING 253
SWIDTH 688 0
DWIDTH 22 0
BBX 20 37 1 -8
BITMAP
006000
00E000
00E000
00C000
000000
000000
000000
000000
000000
000000
E00070
E00070
E00070
E00070
E00070
E00070
E00070
E00070
E00070
E00070
E00070
E00070
E00070
E00070
E00070
E00070
FFFFF0
7FFFF0
3FFFF0
000070
000070
000070
000070
000070
0FFFF0
0FFFE0
0FFFC0
ENDCHAR
STARTCHAR ydieresis
ENCODING 255
SWIDTH 688 0
DWIDTH 22 0
BBX 20 36 1 -8
BITMAP
039C00
039C00
039C00
000000
000000
000000
000000
000000
000000
E00070
E00070
E00070
E00070
E00070
E00070
E00070
E00070
E00070
E00070
E00070
E00070
E00070
E00070
E00070
E00070
FFFFF0
7FFFF0
3FFFF0
000070
000070
000070
000070
000070
0FFFF0
0FFFE0
0FFFC0
ENDCHAR
STARTCHAR dotlessi
ENCODING 305
SWIDTH 214 0
DWIDTH 7 0
BBX 3 19 1 0
BITMAP
E0
E0
E0
E0
E0
E0
E0
E0
E0
E0
E0
E0
E0
E0
E0
E0
E0
E0
E0
ENDCHAR
STARTCHAR OE
ENCODING 338
SWIDTH 1374 0
DWIDTH 44 0
BBX 41 23 2 0
BITMAP
3FFFFFFFFF80
7FFFFFFFFF80
FFFFFFFFFF80
E0000E000000
E0000E000000
E0000E000000
E0000E000000
E0000E000000
E0000E000000
E0000E000000
E0000FFFFC00
E0000FFFFC00
E0000FFFFC00
E0000E000000
E0000E000000
E0000E000000
E0000E000000
E0000E000000
E0000E000000
E0000E000000
FFFFFFFFFF80
7FFFFFFFFF80
3FFFFFFFFF80
ENDCHAR
STARTCHAR oe
ENCODING 339
SWIDTH 1177 0
DWIDTH 38 0
BBX 35 19 2 0
BITMAP
3FFFFFFF80
7FFFFFFFC0
FFFFFFFFE0
E000E000E0
E000E000E0
E000E000E0
E000E000E0
E000E000E0
E000FFFFE0
E000FFFFE0
E000FFFFE0
E000E00000
E000E00000
E000E00000
E000E00000
E000E00000
FFFFFFFFE0
7FFFFFFFE0
3FFFFFFFE0
ENDCHAR
STARTCHAR Scaron
ENCODING 352
SWIDTH 822 0
DWIDTH 27 0
BBX 23 32 2 0
BITMAP
018C00
00D800
005000
007000
000000
000000
000000
000000
000000
3FFFF8
7FFFFC
FFFFFE
E0000E
E0000E
E00000
E00000
E00000
E00000
E00000
FFFFF8
7FFFFC
3FFFFE
00000E
00000E
00000E
00000E
00000E
E0000E
E0000E
FFFFFE
7FFFFC
3FFFF8
ENDCHAR
STARTCHAR scaron
ENCODING 353
SWIDTH 687 0
DWIDTH 22 0
BBX 19 29 2 0
BITMAP
063000
026000
034000
01C000
000000
000000
000000
000000
000000
000000
3FFF80
7FFFC0
FFFFE0
E000E0
E00000
E00000
E00000
E00000
FFFF80
7FFFC0
3FFFE0
0000E0
0000E0
0000E0
0000E0
E000E0
FFFFE0
7FFFC0
3FFF80
ENDCHAR
STARTCHAR Ydieresis
ENCODING 376
SWIDTH 806 0
DWIDTH 26 0
BBX 25 31 0 0
BITMAP
00738000
00738000
00738000
00000000
00000000
00000000
00000000
00000000
F0000780
78000E00
38000E00
1C001C00
0E003800
0F007800
0780F000
0380E000
01C1C000
01E3C000
00F78000
007F0000
003E0000
003E0000
001C0000
001C0000
001C0000
001C0000
001C0000
001C0000
001C0000
001C0000
001C0000
ENDCHAR
STARTCHAR Zcaron
ENCODING 381
SWIDTH 821 0
DWIDTH 26 0
BBX 23 32 2 0
BITMAP
018C00
00D800
005000
007000
000000
000000
000000
000000
000000
FFFFFE
FFFFFE
FFFFFE
00001E
000038
000070
0001E0
0003C0
000780
000E00
001C00
007800
00F000
01E000
038000
070000
1E0000
3C0000
700000
E00000
FFFFFE
FFFFFE
FFFFFE
ENDCHAR
STARTCHAR zcaron
ENCODING 382
SWIDTH 698 0
DWIDTH 22 0
BBX 19 29 2 0
BITMAP
063000
036000
014000
01C000
000000
000000
000000
000000
000000
000000
FFFFE0
FFFFE0
FFFFE0
0001E0
000380
000700
001E00
003C00
007000
01E000
03C000
070000
1E0000
3C0000
780000
E00000
FFFFE0
FFFFE0
FFFFE0
ENDCHAR
STARTCHAR circumflex
ENCODING 710
SWIDTH 300 0
DWIDTH 10 0
BBX 6 4 1 28
BITMAP
30
78
48
C4
ENDCHAR
STARTCHAR caron
ENCODING 711
SWIDTH 297 0
DWIDTH 10 0
BBX 6 4 1 28
BITMAP
C4
48
78
30
ENDCHAR
STARTCHAR breve
ENCODING 728
SWIDTH 287 0
DWIDTH 9 0
BBX 6 2 1 28
BITMAP
84
7C
ENDCHAR
STARTCHAR dotaccent
ENCODING 729
SWIDTH 233 0
DWIDTH 7 0
BBX 4 4 1 28
BITMAP
F0
F0
F0
F0
ENDCHAR
STARTCHAR ring
ENCODING 730
SWIDTH 233 0
DWIDTH 7 0
BBX 5 4 1 27
BITMAP
F8
88
88
F8
ENDCHAR
STARTCHAR tilde
ENCODING 732
SWIDTH 403 0
DWIDTH 13 0
BBX 11 4 1 28
BITMAP
F000
FC00
0FE0
03E0
ENDCHAR
STARTCHAR endash
ENCODING 8211
SWIDTH 708 0
DWIDTH 23 0
BBX 19 3 2 8
BITMAP
FFFFE0
FFFFE0
FFFFE0
ENDCHAR
STARTCHAR emdash
ENCODING 8212
SWIDTH 822 0
DWIDTH 26 0
BBX 23 3 2 8
BITMAP
FFFFFE
FFFFFE
FFFFFE
ENDCHAR
STARTCHAR quoteleft
ENCODING 8216
SWIDTH 168 0
DWIDTH 5 0
BBX 3 7 1 16
BITMAP
20
60
E0
E0
E0
E0
E0
ENDCHAR
STARTCHAR quoteright
ENCODING 8217
SWIDTH 166 0
DWIDTH 6 0
BBX 3 7 2 16
BITMAP
E0
E0
E0
E0
E0
C0
80
ENDCHAR
STARTCHAR quotedblleft
ENCODING 8220
SWIDTH 363 0
DWIDTH 12 0
BBX 8 7 2 16
BITMAP
21
63
E7
E7
E7
E7
E7
ENDCHAR
STARTCHAR quotedblright
ENCODING 8221
SWIDTH 363 0
DWIDTH 12 0
BBX 9 7 2 16
BITMAP
E380
E380
E380
E380
E380
C300
8200
ENDCHAR
STARTCHAR bullet
ENCODING 8226
SWIDTH 371 0
DWIDTH 12 0
BBX 3 2 4 11
BITMAP
E0
E0
ENDCHAR
STARTCHAR ellipsis
ENCODING 8230
SWIDTH 574 0
DWIDTH 19 0
BBX 15 3 2 0
BITMAP
E38E
E38E
E38E
ENDCHAR
STARTCHAR Euro
ENCODING 8364
SWIDTH 799 0
DWIDTH 26 0
BBX 23 23 1 0
BITMAP
07FFFE
0FFFFE
1FFFFE
1C0000
1C0000
1C0000
1C0000
FFFFF0
FFFFF0
FFFFF0
1C0000
1C0000
1C0000
FFFFF0
FFFFF0
FFFFF0
1C0000
1C0000
1C0000
1C0000
1FFFFE
0FFFFE
07FFFE
ENDCHAR
STARTCHAR minus
ENCODING 8722
SWIDTH 517 0
DWIDTH 17 0
BBX 12 3 2 8
BITMAP
FFF0
FFF0
FFF0
ENDCHAR
STARTCHAR uniE000
ENCODING 57344
SWIDTH 0 0
DWIDTH 0 0
BBX 1 1 0 0
BITMAP
00
ENDCHAR
STARTCHAR seven.alt
ENCODING 57346
SWIDTH 771 0
DWIDTH 25 0
BBX 24 23 1 0
BITMAP
7FFFFF
7FFFFC
7FFFFC
000038
000070
0000E0
0001C0
000380
000780
000F00
000E00
001C00
003800
007000
00E000
01E000
03C000
038000
070000
0E0000
1C0000
380000
F80000
ENDCHAR
STARTCHAR nine.alt
ENCODING 57347
SWIDTH 784 0
DWIDTH 25 0
BBX 24 23 0 0
BITMAP
3FFFFC
7FFFFE
FFFFFF
E00007
E00007
E00007
E00007
E00007
E00007
E00007
FFFFFF
7FFFFF
3FFFFF
000007
000007
000007
000007
000007
000007
000007
000007
000007
000007
ENDCHAR
STARTCHAR two.alt
ENCODING 57349
SWIDTH 815 0
DWIDTH 26 0
BBX 23 23 2 0
BITMAP
3FFFF8
7FFFFC
FFFFFE
E0000E
E0000E
00000E
00001E
00007E
0001F8
0007E0
001F80
003E00
00F800
03E000
0F8000
3E0000
F80000
E00000
E00000
E00000
FFFFFE
7FFFFE
3FFFFE
ENDCHAR
STARTCHAR question.alt
ENCODING 57350
SWIDTH 667 0
DWIDTH 22 0
BBX 20 23 1 0
BITMAP
3FFFC0
7FFFE0
FFFFF0
E00070
E00070
E00070
000070
000070
000070
000070
000070
01FFF0
03FFE0
07FFC0
070000
070000
070000
070000
000000
000000
070000
070000
070000
ENDCHAR
STARTCHAR four.alt
ENCODING 57351
SWIDTH 723 0
DWIDTH 23 0
BBX 23 23 0 0
BITMAP
000E00
001C00
003800
007800
00F000
01E000
03C000
038000
070000
0E00E0
1C00E0
3800E0
7000E0
E000E0
FFFFFE
FFFFFE
FFFFFE
0000E0
0000E0
0000E0
0000E0
0000E0
0000E0
ENDCHAR
STARTCHAR W.alt2
ENCODING 57352
SWIDTH 1168 0
DWIDTH 37 0
BBX 36 23 0 0
BITMAP
F007800070
3801C00070
1C01E00070
1E00F00070
0F00700070
0780380070
03801C0070
01C00E0070
00E0070070
0070070070
0078078070
003C07C070
001E07E070
000E077070
0007073870
0003871870
0001C70C70
0001E70E70
0000F70770
00007F03F0
00003F01F0
00001F01F0
00000F00F0
ENDCHAR
STARTCHAR W.alt
ENCODING 57353
SWIDTH 1171 0
DWIDTH 37 0
BBX 35 23 2 0
BITMAP
E0001E00E0
E0003801C0
E000780380
E000F00780
E000E00F00
E001C01E00
E003801C00
E007003800
E00E007000
E01E00E000
E01E01E000
E03E03C000
E07E078000
E0EE070000
E1CE0E0000
E18E1C0000
E38E3C0000
E70E780000
EE0EF00000
FC0FE00000
F80FC00000
F80F800000
F00F000000
ENDCHAR
STARTCHAR V.alt
ENCODING 57354
SWIDTH 774 0
DWIDTH 25 0
BBX 23 23 2 0
BITMAP
E0000E
E0001C
E00038
E00078
E000F0
E001E0
E001C0
E00380
E00700
E00E00
E01E00
E03C00
E07800
E07000
E0E000
E1C000
E38000
E78000
EF0000
FE0000
FC0000
F80000
F00000
ENDCHAR
STARTCHAR A.alt
ENCODING 57355
SWIDTH 774 0
DWIDTH 24 0
BBX 24 23 -1 0
BITMAP
00000F
00001F
00003F
00007F
0000F7
0001E7
0001C7
000387
000707
000E07
001E07
003C07
007807
007007
00FFFF
01FFFF
03FFFF
078007
0F0007
1E0007
1C0007
380007
F00007
ENDCHAR
STARTCHAR A.alt2
ENCODING 57356
SWIDTH 774 0
DWIDTH 25 0
BBX 24 23 2 0
BITMAP
F00000
F80000
FC0000
FE0000
EF0000
E78000
E38000
E1C000
E0E000
E07000
E07800
E03C00
E01E00
E00E00
FFFF00
FFFF80
FFFFC0
E001E0
E000F0
E00078
E00038
E0001C
E0000F
ENDCHAR
STARTCHAR .notdef
ENCODING -1
SWIDTH 0 0
DWIDTH 0 0
BBX 1 1 0 0
BITMAP
00
ENDCHAR
STARTCHAR .null
ENCODING -1
SWIDTH 0 0
DWIDTH 0 0
BBX 1 1 0 0
BITMAP
00
ENDCHAR
STARTCHAR nonmarkingreturn
ENCODING -1
SWIDTH 401 0
DWIDTH 13 0
BBX 1 1 0 0
BITMAP
00
ENDCHAR
STARTCHAR A.alt3
ENCODING -1
SWIDTH 827 0
DWIDTH 26 0
BBX 28 23 -1 0
BITMAP
000F0000
000F0000
001F8000
00198000
0039C000
0070C000
0070E000
00E06000
00E07000
01C03800
01C03800
03801C00
03801C00
07000E00
07FFFE00
0FFFFF00
0FFFFF00
1C000380
3C000380
380001C0
780001C0
700000E0
E00000F0
ENDCHAR
STARTCHAR C.alt
ENCODING -1
SWIDTH 822 0
DWIDTH 27 0
BBX 23 23 2 0
BITMAP
3FFFF8
7FFFFC
FFFFFE
E0000E
E0000E
E0000E
E00000
E00000
E00000
E00000
E00000
E00000
E00000
E00000
E00000
E00000
E00000
E0000E
E0000E
E0000E
FFFFFE
7FFFFC
3FFFF8
ENDCHAR
STARTCHAR I.alt
ENCODING -1
SWIDTH 818 0
DWIDTH 26 0
BBX 23 23 2 0
BITMAP
FFFFFE
FFFFFE
FFFFFE
003800
003800
003800
003800
003800
003800
003800
003800
003800
003800
003800
003800
003800
003800
003800
003800
003800
FFFFFE
FFFFFE
FFFFFE
ENDCHAR
STARTCHAR J.alt
ENCODING -1
SWIDTH 645 0
DWIDTH 21 0
BBX 19 23 0 0
BITMAP
0000E0
0000E0
0000E0
0000E0
0000E0
0000E0
0000E0
0000E0
0000E0
0000E0
0000E0
0000E0
0000E0
0000E0
0000E0
0000E0
0000E0
0000E0
0000E0
0000E0
FFFFE0
FFFFC0
FFFF80
ENDCHAR
STARTCHAR K.alt
ENCODING -1
SWIDTH 829 0
DWIDTH 27 0
BBX 23 23 2 0
BITMAP
E0000E
E0000E
E0000E
E0000E
E0000E
E0000E
E0000E
E0000E
E0000E
E0000E
E0000C
FFFFF8
FFFFF8
E0000C
E0000E
E0000E
E0000E
E0000E
E0000E
E0000E
E0000E
E0000E
E0000E
ENDCHAR
STARTCHAR M.alt
ENCODING -1
SWIDTH 1155 0
DWIDTH 37 0
BBX 34 23 2 0
BITMAP
FFFFFFFF00
FFFFFFFF80
FFFFFFFFC0
E001C001C0
E001C001C0
E001C001C0
E001C001C0
E001C001C0
E001C001C0
E001C001C0
E001C001C0
E001C001C0
E001C001C0
E001C001C0
E001C001C0
E001C001C0
E001C001C0
E001C001C0
E001C001C0
E001C001C0
E001C001C0
E001C001C0
E001C001C0
ENDCHAR
STARTCHAR N.alt
ENCODING -1
SWIDTH 827 0
DWIDTH 27 0
BBX 23 23 2 0
BITMAP
FFFFF8
FFFFFC
FFFFFE
E0000E
E0000E
E0000E
E0000E
E0000E
E0000E
E0000E
E0000E
E0000E
E0000E
E0000E
E0000E
E0000E
E0000E
E0000E
E0000E
E0000E
E0000E
E0000E
E0000E
ENDCHAR
STARTCHAR O.alt
ENCODING -1
SWIDTH 824 0
DWIDTH 27 0
BBX 23 23 2 0
BITMAP
3FFFF8
7FFFFC
FFFFFE
E0000E
E0000E
E0000E
E0000E
E0000E
E0000E
E0000E
E0380E
E0380E
E0380E
E0000E
E0000E
E0000E
E0000E
E0000E
E0000E
E0000E
FFFFFE
7FFFFC
3FFFF8
ENDCHAR
STARTCHAR Q.alt
ENCODING -1
SWIDTH 868 0
DWIDTH 28 0
BBX 23 26 2 -3
BITMAP
3FFFF8
7FFFFC
FFFFFE
E0000E
E0000E
E0000E
E0000E
E0000E
E0000E
E0000E
E0000E
E0000E
E0000E
E0000E
E0000E
E0000E
E0000E
E0000E
E0000E
E0000E
FFFFFE
7FFFFC
3FFFF8
003800
003800
003800
ENDCHAR
STARTCHAR R.alt
ENCODING -1
SWIDTH 826 0
DWIDTH 27 0
BBX 23 23 2 0
BITMAP
FFFFF8
FFFFFC
FFFFFE
E0000E
E0000E
E0000E
E0000E
E0000E
E0000E
E0000E
E0000E
E0000E
FFFFFC
FFFFF0
FFFFFC
E0000E
E0000E
E0000E
E0000E
E0000E
E0000E
E0000E
E0000E
ENDCHAR
STARTCHAR S.alt
ENCODING -1
SWIDTH 812 0
DWIDTH 26 0
BBX 24 23 1 0
BITMAP
3FFFFF
7FFFFF
FFFFFF
E00000
E00000
E00000
E00000
E00000
E00000
E00000
FFFFFC
7FFFFE
3FFFFF
000007
000007
000007
000007
000007
000007
000007
FFFFFF
FFFFFE
FFFFFC
ENDCHAR
STARTCHAR V.alt2
ENCODING -1
SWIDTH 774 0
DWIDTH 25 0
BBX 23 23 0 0
BITMAP
F0000E
70000E
38000E
1C000E
1E000E
0F000E
07800E
03800E
01C00E
00E00E
00700E
00780E
003C0E
001C0E
000E0E
00070E
00038E
0003CE
0001EE
0000FE
00007E
00003E
00001E
ENDCHAR
STARTCHAR V.alt3
ENCODING -1
SWIDTH 827 0
DWIDTH 27 0
BBX 23 23 2 0
BITMAP
E0000E
E0000E
E0000E
E0000E
E0000E
E0000E
E0000E
E0000E
E0000E
E0000E
E0000E
E0000E
E0000E
E0000E
E0000E
E0000E
E0000E
E0000E
E0000E
E0000E
FFFFFE
7FFFFE
3FFFFE
ENDCHAR
STARTCHAR W.alt3
ENCODING -1
SWIDTH 1028 0
DWIDTH 33 0
BBX 30 23 2 0
BITMAP
E000001C
E000001C
E000001C
E000001C
E000001C
E002001C
E003001C
E007801C
E00FC01C
E00FC01C
E01CE01C
E038701C
E070381C
E0F03C1C
E0E01C1C
E1C00E1C
E380071C
E700039C
EE0001DC
FE0001FC
FC0000FC
F800007C
F000003C
ENDCHAR
STARTCHAR W.alt4
ENCODING -1
SWIDTH 1155 0
DWIDTH 37 0
BBX 34 23 2 0
BITMAP
E000E001C0
E000E001C0
E000E001C0
E000E001C0
E000E001C0
E000E001C0
E000E001C0
E000E001C0
E000E001C0
E000E001C0
E000E001C0
E000E001C0
E000E001C0
E000E001C0
E000E001C0
E000E001C0
E000E001C0
E000E001C0
E000E001C0
E000E001C0
FFFFFFFFC0
7FFFFFFFC0
3FFFFFFFC0
ENDCHAR
STARTCHAR X.alt
ENCODING -1
SWIDTH 829 0
DWIDTH 27 0
BBX 23 23 2 0
BITMAP
E0000E
E0000E
E0000E
E0000E
E0000E
E0000E
E0000E
E0000E
E0000E
E0000E
60000C
3FFFF8
3FFFF8
60000C
E0000E
E0000E
E0000E
E0000E
E0000E
E0000E
E0000E
E0000E
E0000E
ENDCHAR
STARTCHAR Y.alt
ENCODING -1
SWIDTH 824 0
DWIDTH 27 0
BBX 23 23 2 0
BITMAP
E0000E
E0000E
E0000E
E0000E
E0000E
E0000E
E0000E
E0000E
E0000E
E0000E
FFFFFE
7FFFFE
3FFFFE
00000E
00000E
00000E
00000E
00000E
00000E
00000E
FFFFFE
FFFFFC
FFFFF8
ENDCHAR
STARTCHAR Z.alt
ENCODING -1
SWIDTH 818 0
DWIDTH 27 0
BBX 23 23 2 0
BITMAP
FFFFF8
FFFFFC
FFFFFE
00000E
00000E
00000E
00000E
00000E
00000E
00000E
3FFFFE
7FFFFC
FFFFF8
E00000
E00000
E00000
E00000
E00000
E00000
E00000
FFFFFE
7FFFFE
3FFFFE
ENDCHAR
STARTCHAR a.alt
ENCODING -1
SWIDTH 693 0
DWIDTH 23 0
BBX 19 19 2 0
BITMAP
3FFF80
7FFFC0
FFFFE0
E000E0
E000E0
E000E0
E000E0
E000E0
E000E0
E000E0
E000E0
E000E0
E000E0
E000E0
E000E0
E000E0
FFFFE0
7FFFE0
3FFFE0
ENDCHAR
STARTCHAR a.sc
ENCODING -1
SWIDTH 725 0
DWIDTH 24 0
BBX 20 19 2 0
BITMAP
3FFFC0
7FFFE0
FFFFF0
E00070
E00070
E00070
E00070
E00070
E00070
E00070
E00070
FFFFF0
FFFFF0
FFFFF0
E00070
E00070
E00070
E00070
E00070
ENDCHAR
STARTCHAR b.sc
ENCODING -1
SWIDTH 700 0
DWIDTH 22 0
BBX 19 19 2 0
BITMAP
FFFF00
FFFF80
FFFFC0
E001C0
E001C0
E001C0
E001C0
E001C0
FFFFC0
FFFFC0
FFFFE0
E000E0
E000E0
E000E0
E000E0
E000E0
FFFFE0
FFFFC0
FFFF80
ENDCHAR
STARTCHAR c.sc
ENCODING -1
SWIDTH 693 0
DWIDTH 22 0
BBX 19 19 1 0
BITMAP
3FFFE0
7FFFE0
FFFFE0
E00000
E00000
E00000
E00000
E00000
E00000
E00000
E00000
E00000
E00000
E00000
E00000
E00000
FFFFE0
7FFFE0
3FFFE0
ENDCHAR
STARTCHAR d.sc
ENCODING -1
SWIDTH 705 0
DWIDTH 23 0
BBX 19 19 2 0
BITMAP
FFFF80
FFFFC0
FFFFE0
E000E0
E000E0
E000E0
E000E0
E000E0
E000E0
E000E0
E000E0
E000E0
E000E0
E000E0
E000E0
E000E0
FFFFE0
FFFFC0
FFFF80
ENDCHAR
STARTCHAR e.sc
ENCODING -1
SWIDTH 638 0
DWIDTH 20 0
BBX 17 19 2 0
BITMAP
FFFF80
FFFF80
FFFF80
E00000
E00000
E00000
E00000
E00000
FFFC00
FFFC00
FFFC00
E00000
E00000
E00000
E00000
E00000
FFFF80
FFFF80
FFFF80
ENDCHAR
STARTCHAR f.sc
ENCODING -1
SWIDTH 591 0
DWIDTH 19 0
BBX 17 19 2 0
BITMAP
FFFF80
FFFF80
FFFF80
E00000
E00000
E00000
E00000
E00000
FFFC00
FFFC00
FFFC00
E00000
E00000
E00000
E00000
E00000
E00000
E00000
E00000
ENDCHAR
STARTCHAR g.sc
ENCODING -1
SWIDTH 690 0
DWIDTH 23 0
BBX 19 19 2 0
BITMAP
3FFF80
7FFFC0
FFFFE0
E000E0
E00000
E00000
E00000
E00000
E00000
E03FE0
E03FE0
E03FE0
E000E0
E000E0
E000E0
E000E0
FFFFE0
7FFFC0
3FFF80
ENDCHAR
STARTCHAR h.sc
ENCODING -1
SWIDTH 715 0
DWIDTH 24 0
BBX 20 19 2 0
BITMAP
E00070
E00070
E00070
E00070
E00070
E00070
E00070
E00070
FFFFF0
FFFFF0
FFFFF0
E00070
E00070
E00070
E00070
E00070
E00070
E00070
E00070
ENDCHAR
STARTCHAR i.sc
ENCODING -1
SWIDTH 214 0
DWIDTH 7 0
BBX 3 19 2 0
BITMAP
E0
E0
E0
E0
E0
E0
E0
E0
E0
E0
E0
E0
E0
E0
E0
E0
E0
E0
E0
ENDCHAR
STARTCHAR j.sc
ENCODING -1
SWIDTH 657 0
DWIDTH 22 0
BBX 20 19 0 0
BITMAP
000070
000070
000070
000070
000070
000070
000070
000070
000070
000070
000070
000070
000070
000070
E00070
E00070
FFFFF0
7FFFE0
3FFFC0
ENDCHAR
STARTCHAR k.alt
ENCODING -1
SWIDTH 669 0
DWIDTH 22 0
BBX 19 25 2 0
BITMAP
E00000
E00000
E00000
E00000
E00000
E00000
E000E0
E000E0
E000E0
E000E0
E000E0
E000E0
E000E0
E000E0
FFFFE0
FFFFC0
FFFFE0
E000E0
E000E0
E000E0
E000E0
E000E0
E000E0
E000E0
E000E0
ENDCHAR
STARTCHAR k.sc
ENCODING -1
SWIDTH 682 0
DWIDTH 22 0
BBX 19 19 2 0
BITMAP
E001E0
E003C0
E00780
E00F00
E01E00
E03C00
E07800
E07000
FFE000
FFC000
FFE000
E07000
E07800
E03C00
E01E00
E00F00
E00780
E003C0
E001E0
ENDCHAR
STARTCHAR l.sc
ENCODING -1
SWIDTH 659 0
DWIDTH 21 0
BBX 20 19 2 0
BITMAP
E00000
E00000
E00000
E00000
E00000
E00000
E00000
E00000
E00000
E00000
E00000
E00000
E00000
E00000
E00000
E00000
FFFFF0
FFFFF0
FFFFF0
ENDCHAR
STARTCHAR m.sc
ENCODING -1
SWIDTH 824 0
DWIDTH 27 0
BBX 23 19 2 0
BITMAP
F0001E
F8003E
F8003E
EC006E
EE00EE
E600CE
E3018E
E3838E
E1830E
E0C60E
E0EE0E
E06C0E
E0380E
E0380E
E0100E
E0200E
E0000E
E0000E
E0000E
ENDCHAR
STARTCHAR n.sc
ENCODING -1
SWIDTH 708 0
DWIDTH 23 0
BBX 19 19 2 0
BITMAP
F000E0
F800E0
F800E0
FC00E0
EE00E0
E700E0
E380E0
E180E0
E1C0E0
E0E0E0
E070E0
E030E0
E038E0
E01CE0
E00EE0
E007E0
E003E0
E003E0
E001E0
ENDCHAR
STARTCHAR o.sc
ENCODING -1
SWIDTH 692 0
DWIDTH 23 0
BBX 19 19 2 0
BITMAP
3FFF80
7FFFC0
FFFFE0
E000E0
E000E0
E000E0
E000E0
E000E0
E000E0
E000E0
E000E0
E000E0
E000E0
E000E0
E000E0
E000E0
FFFFE0
7FFFC0
3FFF80
ENDCHAR
STARTCHAR p.sc
ENCODING -1
SWIDTH 660 0
DWIDTH 22 0
BBX 19 19 2 0
BITMAP
FFFF80
FFFFC0
FFFFE0
E000E0
E000E0
E000E0
E000E0
E000E0
E000E0
E000E0
FFFFE0
FFFFC0
FFFF80
E00000
E00000
E00000
E00000
E00000
E00000
ENDCHAR
STARTCHAR q.sc
ENCODING -1
SWIDTH 770 0
DWIDTH 25 0
BBX 22 19 2 0
BITMAP
3FFF80
7FFFC0
FFFFE0
E000E0
E000E0
E000E0
E000E0
E000E0
E000E0
E000E0
E000E0
E000E0
E000E0
E000E0
E000E0
E000E0
FFFFFC
7FFFFC
3FFFFC
ENDCHAR
STARTCHAR r.sc
ENCODING -1
SWIDTH 700 0
DWIDTH 23 0
BBX 19 19 2 0
BITMAP
FFFF80
FFFFC0
FFFFE0
E000E0
E000E0
E000E0
E000E0
E000E0
E000E0
E000E0
FFFFE0
FFFFC0
FFFF80
E07000
E03C00
E00E00
E00700
E00380
E001E0
ENDCHAR
STARTCHAR s.sc
ENCODING -1
SWIDTH 687 0
DWIDTH 23 0
BBX 19 19 2 0
BITMAP
3FFF80
7FFFC0
FFFFE0
E000E0
E00000
E00000
E00000
E00000
FFFF80
7FFFC0
3FFFE0
0000E0
0000E0
0000E0
0000E0
E000E0
FFFFE0
7FFFC0
3FFF80
ENDCHAR
STARTCHAR t.sc
ENCODING -1
SWIDTH 644 0
DWIDTH 21 0
BBX 19 19 1 0
BITMAP
FFFFE0
FFFFE0
FFFFE0
00E000
00E000
00E000
00E000
00E000
00E000
00E000
00E000
00E000
00E000
00E000
00E000
00E000
00E000
00E000
00E000
ENDCHAR
STARTCHAR u.sc
ENCODING -1
SWIDTH 695 0
DWIDTH 23 0
BBX 19 19 2 0
BITMAP
E000E0
E000E0
E000E0
E000E0
E000E0
E000E0
E000E0
E000E0
E000E0
E000E0
E000E0
E000E0
E000E0
E000E0
E000E0
E000E0
FFFFE0
7FFFC0
3FFF80
ENDCHAR
STARTCHAR v.alt
ENCODING -1
SWIDTH 697 0
DWIDTH 23 0
BBX 19 19 2 0
BITMAP
E000E0
E000E0
E000E0
E000E0
E000E0
E000E0
E000E0
E000E0
E000E0
E000E0
E000E0
E000E0
E000E0
E000E0
E000E0
E000E0
FFFFE0
7FFFE0
3FFFE0
ENDCHAR
STARTCHAR v.sc
ENCODING -1
SWIDTH 801 0
DWIDTH 26 0
BBX 24 19 1 0
BITMAP
E0000F
F0000E
70001C
38001C
380038
1C0078
1C0070
0E00E0
0E00E0
0701C0
0701C0
038380
01C380
01C700
00E700
00EE00
007E00
007C00
003800
ENDCHAR
STARTCHAR w.alt
ENCODING -1
SWIDTH 978 0
DWIDTH 31 0
BBX 28 19 2 0
BITMAP
E00E0070
E00E0070
E00E0070
E00E0070
E00E0070
E00E0070
E00E0070
E00E0070
E00E0070
E00E0070
E00E0070
E00E0070
E00E0070
E00E0070
E00E0070
E00E0070
FFFFFFF0
7FFFFFF0
3FFFFFF0
ENDCHAR
STARTCHAR w.sc
ENCODING -1
SWIDTH 1078 0
DWIDTH 35 0
BBX 33 19 1 0
BITMAP
E001C00380
7003E00700
7003E00700
7007F00600
3807700E00
380F780E00
1C0E381C00
1C1E381C00
1C1C1C1800
0E1C1C3800
0E381E3800
07380E7000
07780F7000
0770077000
03F007E000
03E003E000
01E003E000
01C001C000
01C001C000
ENDCHAR
STARTCHAR x.alt
ENCODING -1
SWIDTH 698 0
DWIDTH 23 0
BBX 19 19 2 0
BITMAP
E000E0
E000E0
E000E0
E000E0
E000E0
E000E0
E000E0
E000E0
FFFFE0
7FFFC0
FFFFE0
E000E0
E000E0
E000E0
E000E0
E000E0
E000E0
E000E0
E000E0
ENDCHAR
STARTCHAR x.sc
ENCODING -1
SWIDTH 692 0
DWIDTH 22 0
BBX 19 19 1 0
BITMAP
F000E0
3801C0
1C0380
1E0780
0F0F00
079E00
03FC00
01F800
00F000
00F000
01F800
03F800
039C00
070E00
0F0F00
1E0780
3C0380
3801C0
F000E0
ENDCHAR
STARTCHAR y.sc
ENCODING -1
SWIDTH 688 0
DWIDTH 22 0
BBX 21 19 0 0
BITMAP
F00078
7800F0
3800E0
1C01C0
1E03C0
0F0780
070700
038E00
03DE00
01FC00
00F800
00F800
007000
007000
007000
007000
007000
007000
007000
ENDCHAR
STARTCHAR z.alt
ENCODING -1
SWIDTH 692 0
DWIDTH 23 0
BBX 19 19 2 0
BITMAP
FFFF80
FFFFC0
FFFFE0
0000E0
0000E0
0000E0
0000E0
0000E0
3FFFE0
7FFFC0
FFFF80
E00000
E00000
E00000
E00000
E00000
FFFFE0
7FFFE0
3FFFE0
ENDCHAR
STARTCHAR z.sc
ENCODING -1
SWIDTH 698 0
DWIDTH 22 0
BBX 19 19 2 0
BITMAP
FFFFE0
FFFFE0
FFFFE0
0001E0
000380
000700
001E00
003C00
007000
01E000
03C000
070000
1E0000
3C0000
780000
E00000
FFFFE0
FFFFE0
FFFFE0
ENDCHAR
ENDFONT
